solid OpenSCAD_Model
  facet normal -0.500092 0.865973 0
    outer loop
      vertex 3.74315 0.0166664 0
      vertex 3.71429 0 6
      vertex 3.74315 0.0166664 6
    endloop
  endfacet
  facet normal -0.500092 0.865973 0
    outer loop
      vertex 3.71429 0 6
      vertex 3.74315 0.0166664 0
      vertex 3.71429 0 0
    endloop
  endfacet
  facet normal -0.499818 0.866131 0
    outer loop
      vertex -1.85714 -3.21667 0
      vertex -1.88601 -3.23333 6
      vertex -1.85714 -3.21667 6
    endloop
  endfacet
  facet normal -0.499818 0.866131 0
    outer loop
      vertex -1.88601 -3.23333 6
      vertex -1.85714 -3.21667 0
      vertex -1.88601 -3.23333 0
    endloop
  endfacet
  facet normal -0 0 -1
    outer loop
      vertex 3.74315 -0.0166664 6
      vertex 1.88601 -3.23333 6
      vertex 3.71429 0 6
    endloop
  endfacet
  facet normal 0 0 -1
    outer loop
      vertex 3.71429 0 6
      vertex 1.88601 3.23333 6
      vertex 3.74315 0.0166664 6
    endloop
  endfacet
  facet normal 0 0 -1
    outer loop
      vertex 1.85714 -3.21667 6
      vertex 3.71429 0 6
      vertex 1.88601 -3.23333 6
    endloop
  endfacet
  facet normal 0 0 -1
    outer loop
      vertex 1.85714 3.21667 6
      vertex 3.71429 0 6
      vertex 1.85714 -3.21667 6
    endloop
  endfacet
  facet normal 0 0 -1
    outer loop
      vertex 3.71429 0 6
      vertex 1.85714 3.21667 6
      vertex 1.88601 3.23333 6
    endloop
  endfacet
  facet normal 0 0 -1
    outer loop
      vertex -3.71429 0 6
      vertex -1.85714 -3.21667 6
      vertex -1.88601 -3.23333 6
    endloop
  endfacet
  facet normal 0 0 -1
    outer loop
      vertex -1.85714 -3.21667 6
      vertex -3.71429 0 6
      vertex -1.85714 3.21667 6
    endloop
  endfacet
  facet normal -0 0 -1
    outer loop
      vertex -1.85714 3.21667 6
      vertex -3.71429 0 6
      vertex -1.88601 3.23333 6
    endloop
  endfacet
  facet normal 0 -0 -1
    outer loop
      vertex -3.71429 0 6
      vertex -1.88601 -3.23333 6
      vertex -3.74315 -0.0166664 6
    endloop
  endfacet
  facet normal 0 0 -1
    outer loop
      vertex -1.85714 -3.21667 6
      vertex 1.85714 -3.21667 6
      vertex 1.85714 -3.25 6
    endloop
  endfacet
  facet normal 0 0 -1
    outer loop
      vertex 1.85714 -3.21667 6
      vertex -1.85714 -3.21667 6
      vertex 1.85714 3.21667 6
    endloop
  endfacet
  facet normal 0 0 -1
    outer loop
      vertex -1.85714 -3.21667 6
      vertex 1.85714 -3.25 6
      vertex -1.85714 -3.25 6
    endloop
  endfacet
  facet normal 0 0 -1
    outer loop
      vertex -1.85714 3.21667 6
      vertex 1.85714 3.21667 6
      vertex -1.85714 -3.21667 6
    endloop
  endfacet
  facet normal 0 0 -1
    outer loop
      vertex 1.85714 3.21667 6
      vertex -1.85714 3.21667 6
      vertex 1.85714 3.25 6
    endloop
  endfacet
  facet normal -0 0 -1
    outer loop
      vertex 1.85714 3.25 6
      vertex -1.85714 3.21667 6
      vertex -1.85714 3.25 6
    endloop
  endfacet
  facet normal 0 0 -1
    outer loop
      vertex -1.88601 3.23333 6
      vertex -3.71429 0 6
      vertex -3.74315 0.0166664 6
    endloop
  endfacet
  facet normal 0.499818 -0.866131 0
    outer loop
      vertex 1.85714 3.21667 0
      vertex 1.88601 3.23333 6
      vertex 1.85714 3.21667 6
    endloop
  endfacet
  facet normal 0.499818 -0.866131 0
    outer loop
      vertex 1.88601 3.23333 6
      vertex 1.85714 3.21667 0
      vertex 1.88601 3.23333 0
    endloop
  endfacet
  facet normal 0.500092 -0.865973 0
    outer loop
      vertex -3.74315 -0.0166664 0
      vertex -3.71429 0 6
      vertex -3.74315 -0.0166664 6
    endloop
  endfacet
  facet normal 0.500092 -0.865973 0
    outer loop
      vertex -3.71429 0 6
      vertex -3.74315 -0.0166664 0
      vertex -3.71429 0 0
    endloop
  endfacet
  facet normal -0.866026 -0.5 0
    outer loop
      vertex 3.74315 0.0166664 0
      vertex 1.88601 3.23333 6
      vertex 1.88601 3.23333 0
    endloop
  endfacet
  facet normal -0.866026 -0.5 0
    outer loop
      vertex 1.88601 3.23333 6
      vertex 3.74315 0.0166664 0
      vertex 3.74315 0.0166664 6
    endloop
  endfacet
  facet normal 0.866026 0.5 0
    outer loop
      vertex -1.88601 -3.23333 6
      vertex -3.74315 -0.0166664 0
      vertex -3.74315 -0.0166664 6
    endloop
  endfacet
  facet normal 0.866026 0.5 0
    outer loop
      vertex -3.74315 -0.0166664 0
      vertex -1.88601 -3.23333 6
      vertex -1.88601 -3.23333 0
    endloop
  endfacet
  facet normal -1 0 0
    outer loop
      vertex 1.85714 3.21667 0
      vertex 1.85714 3.25 6
      vertex 1.85714 3.25 0
    endloop
  endfacet
  facet normal -1 -0 0
    outer loop
      vertex 1.85714 3.25 6
      vertex 1.85714 3.21667 0
      vertex 1.85714 3.21667 6
    endloop
  endfacet
  facet normal -1 0 0
    outer loop
      vertex 1.85714 -3.25 0
      vertex 1.85714 -3.21667 6
      vertex 1.85714 -3.21667 0
    endloop
  endfacet
  facet normal -1 -0 0
    outer loop
      vertex 1.85714 -3.21667 6
      vertex 1.85714 -3.25 0
      vertex 1.85714 -3.25 6
    endloop
  endfacet
  facet normal 1 -0 0
    outer loop
      vertex -1.85714 3.21667 6
      vertex -1.85714 3.25 0
      vertex -1.85714 3.25 6
    endloop
  endfacet
  facet normal 1 0 0
    outer loop
      vertex -1.85714 3.25 0
      vertex -1.85714 3.21667 6
      vertex -1.85714 3.21667 0
    endloop
  endfacet
  facet normal 1 -0 0
    outer loop
      vertex -1.85714 -3.25 6
      vertex -1.85714 -3.21667 0
      vertex -1.85714 -3.21667 6
    endloop
  endfacet
  facet normal 1 0 0
    outer loop
      vertex -1.85714 -3.21667 0
      vertex -1.85714 -3.25 6
      vertex -1.85714 -3.25 0
    endloop
  endfacet
  facet normal 0 -1 0
    outer loop
      vertex -1.85714 3.25 0
      vertex 1.85714 3.25 6
      vertex -1.85714 3.25 6
    endloop
  endfacet
  facet normal 0 -1 -0
    outer loop
      vertex 1.85714 3.25 6
      vertex -1.85714 3.25 0
      vertex 1.85714 3.25 0
    endloop
  endfacet
  facet normal 0 1 -0
    outer loop
      vertex 1.85714 -3.25 0
      vertex -1.85714 -3.25 6
      vertex 1.85714 -3.25 6
    endloop
  endfacet
  facet normal 0 1 0
    outer loop
      vertex -1.85714 -3.25 6
      vertex 1.85714 -3.25 0
      vertex -1.85714 -3.25 0
    endloop
  endfacet
  facet normal -0.499818 -0.866131 0
    outer loop
      vertex -1.88601 3.23333 0
      vertex -1.85714 3.21667 6
      vertex -1.88601 3.23333 6
    endloop
  endfacet
  facet normal -0.499818 -0.866131 -0
    outer loop
      vertex -1.85714 3.21667 6
      vertex -1.88601 3.23333 0
      vertex -1.85714 3.21667 0
    endloop
  endfacet
  facet normal -0.500092 -0.865973 0
    outer loop
      vertex 3.71429 0 0
      vertex 3.74315 -0.0166664 6
      vertex 3.71429 0 6
    endloop
  endfacet
  facet normal -0.500092 -0.865973 -0
    outer loop
      vertex 3.74315 -0.0166664 6
      vertex 3.71429 0 0
      vertex 3.74315 -0.0166664 0
    endloop
  endfacet
  facet normal 0.500092 0.865973 -0
    outer loop
      vertex -3.71429 0 0
      vertex -3.74315 0.0166664 6
      vertex -3.71429 0 6
    endloop
  endfacet
  facet normal 0.500092 0.865973 0
    outer loop
      vertex -3.74315 0.0166664 6
      vertex -3.71429 0 0
      vertex -3.74315 0.0166664 0
    endloop
  endfacet
  facet normal 0.499818 0.866131 -0
    outer loop
      vertex 1.88601 -3.23333 0
      vertex 1.85714 -3.21667 6
      vertex 1.88601 -3.23333 6
    endloop
  endfacet
  facet normal 0.499818 0.866131 0
    outer loop
      vertex 1.85714 -3.21667 6
      vertex 1.88601 -3.23333 0
      vertex 1.85714 -3.21667 0
    endloop
  endfacet
  facet normal 0.866026 -0.5 0
    outer loop
      vertex -3.74315 0.0166664 6
      vertex -1.88601 3.23333 0
      vertex -1.88601 3.23333 6
    endloop
  endfacet
  facet normal 0.866026 -0.5 0
    outer loop
      vertex -1.88601 3.23333 0
      vertex -3.74315 0.0166664 6
      vertex -3.74315 0.0166664 0
    endloop
  endfacet
  facet normal -0.866026 0.5 0
    outer loop
      vertex 1.88601 -3.23333 0
      vertex 3.74315 -0.0166664 6
      vertex 3.74315 -0.0166664 0
    endloop
  endfacet
  facet normal -0.866026 0.5 0
    outer loop
      vertex 3.74315 -0.0166664 6
      vertex 1.88601 -3.23333 0
      vertex 1.88601 -3.23333 6
    endloop
  endfacet
  facet normal -0.500092 0.865973 0
    outer loop
      vertex 3.74315 0.0166664 19
      vertex 3.71429 0 25
      vertex 3.74315 0.0166664 25
    endloop
  endfacet
  facet normal -0.500092 0.865973 0
    outer loop
      vertex 3.71429 0 25
      vertex 3.74315 0.0166664 19
      vertex 3.71429 0 19
    endloop
  endfacet
  facet normal -0.499818 0.866131 0
    outer loop
      vertex -1.85714 -3.21667 19
      vertex -1.88601 -3.23333 25
      vertex -1.85714 -3.21667 25
    endloop
  endfacet
  facet normal -0.499818 0.866131 0
    outer loop
      vertex -1.88601 -3.23333 25
      vertex -1.85714 -3.21667 19
      vertex -1.88601 -3.23333 19
    endloop
  endfacet
  facet normal 0 0 1
    outer loop
      vertex 3.74315 0.0166664 19
      vertex 1.88601 3.23333 19
      vertex 3.71429 0 19
    endloop
  endfacet
  facet normal 0 0 1
    outer loop
      vertex 3.71429 0 19
      vertex 1.88601 -3.23333 19
      vertex 3.74315 -0.0166664 19
    endloop
  endfacet
  facet normal -0 0 1
    outer loop
      vertex 1.85714 3.21667 19
      vertex 3.71429 0 19
      vertex 1.88601 3.23333 19
    endloop
  endfacet
  facet normal 0 0 1
    outer loop
      vertex 1.85714 -3.21667 19
      vertex 3.71429 0 19
      vertex 1.85714 3.21667 19
    endloop
  endfacet
  facet normal 0 0 1
    outer loop
      vertex 3.71429 0 19
      vertex 1.85714 -3.21667 19
      vertex 1.88601 -3.23333 19
    endloop
  endfacet
  facet normal 0 0 1
    outer loop
      vertex -3.71429 0 19
      vertex -1.85714 3.21667 19
      vertex -1.88601 3.23333 19
    endloop
  endfacet
  facet normal 0 0 1
    outer loop
      vertex -1.85714 3.21667 19
      vertex -3.71429 0 19
      vertex -1.85714 -3.21667 19
    endloop
  endfacet
  facet normal 0 0 1
    outer loop
      vertex -1.85714 -3.21667 19
      vertex -3.71429 0 19
      vertex -1.88601 -3.23333 19
    endloop
  endfacet
  facet normal 0 -0 1
    outer loop
      vertex -3.71429 0 19
      vertex -1.88601 3.23333 19
      vertex -3.74315 0.0166664 19
    endloop
  endfacet
  facet normal 0 0 1
    outer loop
      vertex -1.85714 3.21667 19
      vertex 1.85714 3.21667 19
      vertex 1.85714 3.25 19
    endloop
  endfacet
  facet normal 0 0 1
    outer loop
      vertex 1.85714 3.21667 19
      vertex -1.85714 3.21667 19
      vertex 1.85714 -3.21667 19
    endloop
  endfacet
  facet normal 0 0 1
    outer loop
      vertex -1.85714 3.21667 19
      vertex 1.85714 3.25 19
      vertex -1.85714 3.25 19
    endloop
  endfacet
  facet normal 0 0 1
    outer loop
      vertex -1.85714 -3.21667 19
      vertex 1.85714 -3.21667 19
      vertex -1.85714 3.21667 19
    endloop
  endfacet
  facet normal 0 0 1
    outer loop
      vertex 1.85714 -3.21667 19
      vertex -1.85714 -3.21667 19
      vertex 1.85714 -3.25 19
    endloop
  endfacet
  facet normal 0 0 1
    outer loop
      vertex 1.85714 -3.25 19
      vertex -1.85714 -3.21667 19
      vertex -1.85714 -3.25 19
    endloop
  endfacet
  facet normal 0 0 1
    outer loop
      vertex -1.88601 -3.23333 19
      vertex -3.71429 0 19
      vertex -3.74315 -0.0166664 19
    endloop
  endfacet
  facet normal 0.499818 -0.866131 0
    outer loop
      vertex 1.85714 3.21667 19
      vertex 1.88601 3.23333 25
      vertex 1.85714 3.21667 25
    endloop
  endfacet
  facet normal 0.499818 -0.866131 0
    outer loop
      vertex 1.88601 3.23333 25
      vertex 1.85714 3.21667 19
      vertex 1.88601 3.23333 19
    endloop
  endfacet
  facet normal 0.500092 -0.865973 0
    outer loop
      vertex -3.74315 -0.0166664 19
      vertex -3.71429 0 25
      vertex -3.74315 -0.0166664 25
    endloop
  endfacet
  facet normal 0.500092 -0.865973 0
    outer loop
      vertex -3.71429 0 25
      vertex -3.74315 -0.0166664 19
      vertex -3.71429 0 19
    endloop
  endfacet
  facet normal -0.866026 -0.5 0
    outer loop
      vertex 3.74315 0.0166664 19
      vertex 1.88601 3.23333 25
      vertex 1.88601 3.23333 19
    endloop
  endfacet
  facet normal -0.866026 -0.5 0
    outer loop
      vertex 1.88601 3.23333 25
      vertex 3.74315 0.0166664 19
      vertex 3.74315 0.0166664 25
    endloop
  endfacet
  facet normal 0.866026 0.5 0
    outer loop
      vertex -1.88601 -3.23333 25
      vertex -3.74315 -0.0166664 19
      vertex -3.74315 -0.0166664 25
    endloop
  endfacet
  facet normal 0.866026 0.5 0
    outer loop
      vertex -3.74315 -0.0166664 19
      vertex -1.88601 -3.23333 25
      vertex -1.88601 -3.23333 19
    endloop
  endfacet
  facet normal -1 0 0
    outer loop
      vertex 1.85714 3.21667 19
      vertex 1.85714 3.25 25
      vertex 1.85714 3.25 19
    endloop
  endfacet
  facet normal -1 -0 0
    outer loop
      vertex 1.85714 3.25 25
      vertex 1.85714 3.21667 19
      vertex 1.85714 3.21667 25
    endloop
  endfacet
  facet normal -1 0 0
    outer loop
      vertex 1.85714 -3.25 19
      vertex 1.85714 -3.21667 25
      vertex 1.85714 -3.21667 19
    endloop
  endfacet
  facet normal -1 -0 0
    outer loop
      vertex 1.85714 -3.21667 25
      vertex 1.85714 -3.25 19
      vertex 1.85714 -3.25 25
    endloop
  endfacet
  facet normal 1 -0 0
    outer loop
      vertex -1.85714 3.21667 25
      vertex -1.85714 3.25 19
      vertex -1.85714 3.25 25
    endloop
  endfacet
  facet normal 1 0 0
    outer loop
      vertex -1.85714 3.25 19
      vertex -1.85714 3.21667 25
      vertex -1.85714 3.21667 19
    endloop
  endfacet
  facet normal 1 -0 0
    outer loop
      vertex -1.85714 -3.25 25
      vertex -1.85714 -3.21667 19
      vertex -1.85714 -3.21667 25
    endloop
  endfacet
  facet normal 1 0 0
    outer loop
      vertex -1.85714 -3.21667 19
      vertex -1.85714 -3.25 25
      vertex -1.85714 -3.25 19
    endloop
  endfacet
  facet normal 0 -1 0
    outer loop
      vertex -1.85714 3.25 19
      vertex 1.85714 3.25 25
      vertex -1.85714 3.25 25
    endloop
  endfacet
  facet normal 0 -1 -0
    outer loop
      vertex 1.85714 3.25 25
      vertex -1.85714 3.25 19
      vertex 1.85714 3.25 19
    endloop
  endfacet
  facet normal 0 1 -0
    outer loop
      vertex 1.85714 -3.25 19
      vertex -1.85714 -3.25 25
      vertex 1.85714 -3.25 25
    endloop
  endfacet
  facet normal 0 1 0
    outer loop
      vertex -1.85714 -3.25 25
      vertex 1.85714 -3.25 19
      vertex -1.85714 -3.25 19
    endloop
  endfacet
  facet normal -0.499818 -0.866131 0
    outer loop
      vertex -1.88601 3.23333 19
      vertex -1.85714 3.21667 25
      vertex -1.88601 3.23333 25
    endloop
  endfacet
  facet normal -0.499818 -0.866131 -0
    outer loop
      vertex -1.85714 3.21667 25
      vertex -1.88601 3.23333 19
      vertex -1.85714 3.21667 19
    endloop
  endfacet
  facet normal -0.500092 -0.865973 0
    outer loop
      vertex 3.71429 0 19
      vertex 3.74315 -0.0166664 25
      vertex 3.71429 0 25
    endloop
  endfacet
  facet normal -0.500092 -0.865973 -0
    outer loop
      vertex 3.74315 -0.0166664 25
      vertex 3.71429 0 19
      vertex 3.74315 -0.0166664 19
    endloop
  endfacet
  facet normal 0.500092 0.865973 -0
    outer loop
      vertex -3.71429 0 19
      vertex -3.74315 0.0166664 25
      vertex -3.71429 0 25
    endloop
  endfacet
  facet normal 0.500092 0.865973 0
    outer loop
      vertex -3.74315 0.0166664 25
      vertex -3.71429 0 19
      vertex -3.74315 0.0166664 19
    endloop
  endfacet
  facet normal 0.499818 0.866131 -0
    outer loop
      vertex 1.88601 -3.23333 19
      vertex 1.85714 -3.21667 25
      vertex 1.88601 -3.23333 25
    endloop
  endfacet
  facet normal 0.499818 0.866131 0
    outer loop
      vertex 1.85714 -3.21667 25
      vertex 1.88601 -3.23333 19
      vertex 1.85714 -3.21667 19
    endloop
  endfacet
  facet normal 0.866026 -0.5 0
    outer loop
      vertex -3.74315 0.0166664 25
      vertex -1.88601 3.23333 19
      vertex -1.88601 3.23333 25
    endloop
  endfacet
  facet normal 0.866026 -0.5 0
    outer loop
      vertex -1.88601 3.23333 19
      vertex -3.74315 0.0166664 25
      vertex -3.74315 0.0166664 19
    endloop
  endfacet
  facet normal -0.866026 0.5 0
    outer loop
      vertex 1.88601 -3.23333 19
      vertex 3.74315 -0.0166664 25
      vertex 3.74315 -0.0166664 19
    endloop
  endfacet
  facet normal -0.866026 0.5 0
    outer loop
      vertex 3.74315 -0.0166664 25
      vertex 1.88601 -3.23333 19
      vertex 1.88601 -3.23333 25
    endloop
  endfacet
  facet normal 0.940882 0.338734 0
    outer loop
      vertex 5.70634 1.8541 25
      vertex 5.57866 2.20875 0
      vertex 5.57866 2.20875 25
    endloop
  endfacet
  facet normal 0.940882 0.338734 0
    outer loop
      vertex 5.57866 2.20875 0
      vertex 5.70634 1.8541 25
      vertex 5.70634 1.8541 0
    endloop
  endfacet
  facet normal -0.75011 -0.661314 0
    outer loop
      vertex -4.37381 -4.10728 0
      vertex -4.62308 -3.82454 25
      vertex -4.62308 -3.82454 0
    endloop
  endfacet
  facet normal -0.75011 -0.661314 0
    outer loop
      vertex -4.62308 -3.82454 25
      vertex -4.37381 -4.10728 0
      vertex -4.37381 -4.10728 25
    endloop
  endfacet
  facet normal -0.0941024 -0.995563 0
    outer loop
      vertex -0.751999 -5.95269 0
      vertex -0.376742 -5.98816 25
      vertex -0.751999 -5.95269 25
    endloop
  endfacet
  facet normal -0.0941024 -0.995563 -0
    outer loop
      vertex -0.376742 -5.98816 25
      vertex -0.751999 -5.95269 0
      vertex -0.376742 -5.98816 0
    endloop
  endfacet
  facet normal 0.827075 -0.562092 0
    outer loop
      vertex 4.8541 -3.52671 25
      vertex 5.06597 -3.21496 0
      vertex 5.06597 -3.21496 25
    endloop
  endfacet
  facet normal 0.827075 -0.562092 0
    outer loop
      vertex 5.06597 -3.21496 0
      vertex 4.8541 -3.52671 25
      vertex 4.8541 -3.52671 0
    endloop
  endfacet
  facet normal 0.999507 -0.0314118 0
    outer loop
      vertex 5.98816 -0.376742 25
      vertex 6 0 0
      vertex 6 0 25
    endloop
  endfacet
  facet normal 0.999507 -0.0314118 0
    outer loop
      vertex 6 0 0
      vertex 5.98816 -0.376742 25
      vertex 5.98816 -0.376742 0
    endloop
  endfacet
  facet normal -0.917752 -0.397154 0
    outer loop
      vertex -5.42896 -2.55468 0
      vertex -5.57866 -2.20875 25
      vertex -5.57866 -2.20875 0
    endloop
  endfacet
  facet normal -0.917752 -0.397154 0
    outer loop
      vertex -5.57866 -2.20875 25
      vertex -5.42896 -2.55468 0
      vertex -5.42896 -2.55468 25
    endloop
  endfacet
  facet normal 0.0941024 0.995563 -0
    outer loop
      vertex 0.751999 5.95269 0
      vertex 0.376742 5.98816 25
      vertex 0.751999 5.95269 25
    endloop
  endfacet
  facet normal 0.0941024 0.995563 0
    outer loop
      vertex 0.376742 5.98816 25
      vertex 0.751999 5.95269 0
      vertex 0.376742 5.98816 0
    endloop
  endfacet
  facet normal 0.0314118 0.999507 -0
    outer loop
      vertex 0.376742 5.98816 0
      vertex 0 6 25
      vertex 0.376742 5.98816 25
    endloop
  endfacet
  facet normal 0.0314118 0.999507 0
    outer loop
      vertex 0 6 25
      vertex 0.376742 5.98816 0
      vertex 0 6 0
    endloop
  endfacet
  facet normal -0.960293 -0.278993 0
    outer loop
      vertex -5.70634 -1.8541 0
      vertex -5.8115 -1.49214 25
      vertex -5.8115 -1.49214 0
    endloop
  endfacet
  facet normal -0.960293 -0.278993 0
    outer loop
      vertex -5.8115 -1.49214 25
      vertex -5.70634 -1.8541 0
      vertex -5.70634 -1.8541 25
    endloop
  endfacet
  facet normal 0.75011 0.661314 0
    outer loop
      vertex 4.62308 3.82454 25
      vertex 4.37381 4.10728 0
      vertex 4.37381 4.10728 25
    endloop
  endfacet
  facet normal 0.75011 0.661314 0
    outer loop
      vertex 4.37381 4.10728 0
      vertex 4.62308 3.82454 25
      vertex 4.62308 3.82454 0
    endloop
  endfacet
  facet normal -0.338734 0.940882 0
    outer loop
      vertex -1.8541 5.70634 0
      vertex -2.20875 5.57866 25
      vertex -1.8541 5.70634 25
    endloop
  endfacet
  facet normal -0.338734 0.940882 0
    outer loop
      vertex -2.20875 5.57866 25
      vertex -1.8541 5.70634 0
      vertex -2.20875 5.57866 0
    endloop
  endfacet
  facet normal 0.995563 -0.0941024 0
    outer loop
      vertex 5.95269 -0.751999 25
      vertex 5.98816 -0.376742 0
      vertex 5.98816 -0.376742 25
    endloop
  endfacet
  facet normal 0.995563 -0.0941024 0
    outer loop
      vertex 5.98816 -0.376742 0
      vertex 5.95269 -0.751999 25
      vertex 5.95269 -0.751999 0
    endloop
  endfacet
  facet normal -0.661314 0.75011 0
    outer loop
      vertex -3.82454 4.62308 0
      vertex -4.10728 4.37381 25
      vertex -3.82454 4.62308 25
    endloop
  endfacet
  facet normal -0.661314 0.75011 0
    outer loop
      vertex -4.10728 4.37381 25
      vertex -3.82454 4.62308 0
      vertex -4.10728 4.37381 0
    endloop
  endfacet
  facet normal -0.827075 0.562092 0
    outer loop
      vertex -5.06597 3.21496 0
      vertex -4.8541 3.52671 25
      vertex -4.8541 3.52671 0
    endloop
  endfacet
  facet normal -0.827075 0.562092 0
    outer loop
      vertex -4.8541 3.52671 25
      vertex -5.06597 3.21496 0
      vertex -5.06597 3.21496 25
    endloop
  endfacet
  facet normal -0.453993 -0.891005 0
    outer loop
      vertex -2.89052 -5.25784 0
      vertex -2.55468 -5.42896 25
      vertex -2.89052 -5.25784 25
    endloop
  endfacet
  facet normal -0.453993 -0.891005 -0
    outer loop
      vertex -2.55468 -5.42896 25
      vertex -2.89052 -5.25784 0
      vertex -2.55468 -5.42896 0
    endloop
  endfacet
  facet normal 0.999507 0.0314118 0
    outer loop
      vertex 6 0 25
      vertex 5.98816 0.376742 0
      vertex 5.98816 0.376742 25
    endloop
  endfacet
  facet normal 0.999507 0.0314118 0
    outer loop
      vertex 5.98816 0.376742 0
      vertex 6 0 25
      vertex 6 0 0
    endloop
  endfacet
  facet normal 0.975919 0.218133 0
    outer loop
      vertex 5.89372 1.12429 25
      vertex 5.8115 1.49214 0
      vertex 5.8115 1.49214 25
    endloop
  endfacet
  facet normal 0.975919 0.218133 0
    outer loop
      vertex 5.8115 1.49214 0
      vertex 5.89372 1.12429 25
      vertex 5.89372 1.12429 0
    endloop
  endfacet
  facet normal -0.987686 0.156447 0
    outer loop
      vertex -5.95269 0.751999 0
      vertex -5.89372 1.12429 25
      vertex -5.89372 1.12429 0
    endloop
  endfacet
  facet normal -0.987686 0.156447 0
    outer loop
      vertex -5.89372 1.12429 25
      vertex -5.95269 0.751999 0
      vertex -5.95269 0.751999 25
    endloop
  endfacet
  facet normal -0.0314118 0.999507 0
    outer loop
      vertex 0 6 0
      vertex -0.376742 5.98816 25
      vertex 0 6 25
    endloop
  endfacet
  facet normal -0.0314118 0.999507 0
    outer loop
      vertex -0.376742 5.98816 25
      vertex 0 6 0
      vertex -0.376742 5.98816 0
    endloop
  endfacet
  facet normal 0.218133 0.975919 -0
    outer loop
      vertex 1.49214 5.8115 0
      vertex 1.12429 5.89372 25
      vertex 1.49214 5.8115 25
    endloop
  endfacet
  facet normal 0.218133 0.975919 0
    outer loop
      vertex 1.12429 5.89372 25
      vertex 1.49214 5.8115 0
      vertex 1.12429 5.89372 0
    endloop
  endfacet
  facet normal 0.612906 0.790156 -0
    outer loop
      vertex 3.82454 4.62308 0
      vertex 3.52671 4.8541 25
      vertex 3.82454 4.62308 25
    endloop
  endfacet
  facet normal 0.612906 0.790156 0
    outer loop
      vertex 3.52671 4.8541 25
      vertex 3.82454 4.62308 0
      vertex 3.52671 4.8541 0
    endloop
  endfacet
  facet normal -0.0941024 0.995563 0
    outer loop
      vertex -0.376742 5.98816 0
      vertex -0.751999 5.95269 25
      vertex -0.376742 5.98816 25
    endloop
  endfacet
  facet normal -0.0941024 0.995563 0
    outer loop
      vertex -0.751999 5.95269 25
      vertex -0.376742 5.98816 0
      vertex -0.751999 5.95269 0
    endloop
  endfacet
  facet normal -0.940882 -0.338734 0
    outer loop
      vertex -5.57866 -2.20875 0
      vertex -5.70634 -1.8541 25
      vertex -5.70634 -1.8541 0
    endloop
  endfacet
  facet normal -0.940882 -0.338734 0
    outer loop
      vertex -5.70634 -1.8541 25
      vertex -5.57866 -2.20875 0
      vertex -5.57866 -2.20875 25
    endloop
  endfacet
  facet normal 0.940882 -0.338734 0
    outer loop
      vertex 5.57866 -2.20875 25
      vertex 5.70634 -1.8541 0
      vertex 5.70634 -1.8541 25
    endloop
  endfacet
  facet normal 0.940882 -0.338734 0
    outer loop
      vertex 5.70634 -1.8541 0
      vertex 5.57866 -2.20875 25
      vertex 5.57866 -2.20875 0
    endloop
  endfacet
  facet normal 0.509035 0.860746 -0
    outer loop
      vertex 3.21496 5.06597 0
      vertex 2.89052 5.25784 25
      vertex 3.21496 5.06597 25
    endloop
  endfacet
  facet normal 0.509035 0.860746 0
    outer loop
      vertex 2.89052 5.25784 25
      vertex 3.21496 5.06597 0
      vertex 2.89052 5.25784 0
    endloop
  endfacet
  facet normal 0.975919 -0.218133 0
    outer loop
      vertex 5.8115 -1.49214 25
      vertex 5.89372 -1.12429 0
      vertex 5.89372 -1.12429 25
    endloop
  endfacet
  facet normal 0.975919 -0.218133 0
    outer loop
      vertex 5.89372 -1.12429 0
      vertex 5.8115 -1.49214 25
      vertex 5.8115 -1.49214 0
    endloop
  endfacet
  facet normal -0.661314 -0.75011 0
    outer loop
      vertex -4.10728 -4.37381 0
      vertex -3.82454 -4.62308 25
      vertex -4.10728 -4.37381 25
    endloop
  endfacet
  facet normal -0.661314 -0.75011 -0
    outer loop
      vertex -3.82454 -4.62308 25
      vertex -4.10728 -4.37381 0
      vertex -3.82454 -4.62308 0
    endloop
  endfacet
  facet normal 0.612906 -0.790156 0
    outer loop
      vertex 3.52671 -4.8541 0
      vertex 3.82454 -4.62308 25
      vertex 3.52671 -4.8541 25
    endloop
  endfacet
  facet normal 0.612906 -0.790156 0
    outer loop
      vertex 3.82454 -4.62308 25
      vertex 3.52671 -4.8541 0
      vertex 3.82454 -4.62308 0
    endloop
  endfacet
  facet normal -0.987686 -0.156447 0
    outer loop
      vertex -5.89372 -1.12429 0
      vertex -5.95269 -0.751999 25
      vertex -5.95269 -0.751999 0
    endloop
  endfacet
  facet normal -0.987686 -0.156447 0
    outer loop
      vertex -5.95269 -0.751999 25
      vertex -5.89372 -1.12429 0
      vertex -5.89372 -1.12429 25
    endloop
  endfacet
  facet normal 0.860746 0.509035 0
    outer loop
      vertex 5.25784 2.89052 25
      vertex 5.06597 3.21496 0
      vertex 5.06597 3.21496 25
    endloop
  endfacet
  facet normal 0.860746 0.509035 0
    outer loop
      vertex 5.06597 3.21496 0
      vertex 5.25784 2.89052 25
      vertex 5.25784 2.89052 0
    endloop
  endfacet
  facet normal -0.790156 0.612906 0
    outer loop
      vertex -4.8541 3.52671 0
      vertex -4.62308 3.82454 25
      vertex -4.62308 3.82454 0
    endloop
  endfacet
  facet normal -0.790156 0.612906 0
    outer loop
      vertex -4.62308 3.82454 25
      vertex -4.8541 3.52671 0
      vertex -4.8541 3.52671 25
    endloop
  endfacet
  facet normal 0.0314118 -0.999507 0
    outer loop
      vertex 0 -6 0
      vertex 0.376742 -5.98816 25
      vertex 0 -6 25
    endloop
  endfacet
  facet normal 0.0314118 -0.999507 0
    outer loop
      vertex 0.376742 -5.98816 25
      vertex 0 -6 0
      vertex 0.376742 -5.98816 0
    endloop
  endfacet
  facet normal 0.987686 0.156447 0
    outer loop
      vertex 5.95269 0.751999 25
      vertex 5.89372 1.12429 0
      vertex 5.89372 1.12429 25
    endloop
  endfacet
  facet normal 0.987686 0.156447 0
    outer loop
      vertex 5.89372 1.12429 0
      vertex 5.95269 0.751999 25
      vertex 5.95269 0.751999 0
    endloop
  endfacet
  facet normal 0.960293 0.278993 0
    outer loop
      vertex 5.8115 1.49214 25
      vertex 5.70634 1.8541 0
      vertex 5.70634 1.8541 25
    endloop
  endfacet
  facet normal 0.960293 0.278993 0
    outer loop
      vertex 5.70634 1.8541 0
      vertex 5.8115 1.49214 25
      vertex 5.8115 1.49214 0
    endloop
  endfacet
  facet normal 0.707107 0.707107 0
    outer loop
      vertex 4.37381 4.10728 25
      vertex 4.10728 4.37381 0
      vertex 4.10728 4.37381 25
    endloop
  endfacet
  facet normal 0.707107 0.707107 0
    outer loop
      vertex 4.10728 4.37381 0
      vertex 4.37381 4.10728 25
      vertex 4.37381 4.10728 0
    endloop
  endfacet
  facet normal 0.75011 -0.661314 0
    outer loop
      vertex 4.37381 -4.10728 25
      vertex 4.62308 -3.82454 0
      vertex 4.62308 -3.82454 25
    endloop
  endfacet
  facet normal 0.75011 -0.661314 0
    outer loop
      vertex 4.62308 -3.82454 0
      vertex 4.37381 -4.10728 25
      vertex 4.37381 -4.10728 0
    endloop
  endfacet
  facet normal 0.995563 0.0941024 0
    outer loop
      vertex 5.98816 0.376742 25
      vertex 5.95269 0.751999 0
      vertex 5.95269 0.751999 25
    endloop
  endfacet
  facet normal 0.995563 0.0941024 0
    outer loop
      vertex 5.95269 0.751999 0
      vertex 5.98816 0.376742 25
      vertex 5.98816 0.376742 0
    endloop
  endfacet
  facet normal 0.562092 -0.827075 0
    outer loop
      vertex 3.21496 -5.06597 0
      vertex 3.52671 -4.8541 25
      vertex 3.21496 -5.06597 25
    endloop
  endfacet
  facet normal 0.562092 -0.827075 0
    outer loop
      vertex 3.52671 -4.8541 25
      vertex 3.21496 -5.06597 0
      vertex 3.52671 -4.8541 0
    endloop
  endfacet
  facet normal -0 0 -1
    outer loop
      vertex -3.71429 0 0
      vertex -3.74315 -0.0166664 0
      vertex -3.74315 0.0166664 0
    endloop
  endfacet
  facet normal 0 0 -1
    outer loop
      vertex -1.85714 3.21667 0
      vertex -1.88601 3.23333 0
      vertex -1.85714 3.25 0
    endloop
  endfacet
  facet normal 0 0 -1
    outer loop
      vertex 3.74315 -0.0166664 0
      vertex 3.71429 0 0
      vertex 3.74315 0.0166664 0
    endloop
  endfacet
  facet normal 0 0 -1
    outer loop
      vertex 3.74315 -0.0166664 0
      vertex 6 0 0
      vertex 5.98816 -0.376742 0
    endloop
  endfacet
  facet normal 0 0 -1
    outer loop
      vertex 3.74315 -0.0166664 0
      vertex 5.98816 -0.376742 0
      vertex 5.95269 -0.751999 0
    endloop
  endfacet
  facet normal 0 0 -1
    outer loop
      vertex 3.74315 0.0166664 0
      vertex 6 0 0
      vertex 3.74315 -0.0166664 0
    endloop
  endfacet
  facet normal 0 0 -1
    outer loop
      vertex 3.74315 -0.0166664 0
      vertex 5.95269 -0.751999 0
      vertex 5.89372 -1.12429 0
    endloop
  endfacet
  facet normal 0 0 -1
    outer loop
      vertex 6 0 0
      vertex 3.74315 0.0166664 0
      vertex 5.98816 0.376742 0
    endloop
  endfacet
  facet normal 0 0 -1
    outer loop
      vertex 3.74315 -0.0166664 0
      vertex 5.89372 -1.12429 0
      vertex 5.8115 -1.49214 0
    endloop
  endfacet
  facet normal -0 0 -1
    outer loop
      vertex 5.98816 0.376742 0
      vertex 3.74315 0.0166664 0
      vertex 5.95269 0.751999 0
    endloop
  endfacet
  facet normal 0 0 -1
    outer loop
      vertex 3.74315 -0.0166664 0
      vertex 5.8115 -1.49214 0
      vertex 5.70634 -1.8541 0
    endloop
  endfacet
  facet normal -0 0 -1
    outer loop
      vertex 5.95269 0.751999 0
      vertex 3.74315 0.0166664 0
      vertex 5.89372 1.12429 0
    endloop
  endfacet
  facet normal 0 0 -1
    outer loop
      vertex 3.74315 -0.0166664 0
      vertex 5.70634 -1.8541 0
      vertex 5.57866 -2.20875 0
    endloop
  endfacet
  facet normal -0 0 -1
    outer loop
      vertex 5.89372 1.12429 0
      vertex 3.74315 0.0166664 0
      vertex 5.8115 1.49214 0
    endloop
  endfacet
  facet normal 0 0 -1
    outer loop
      vertex 3.74315 -0.0166664 0
      vertex 5.57866 -2.20875 0
      vertex 5.42896 -2.55468 0
    endloop
  endfacet
  facet normal -0 0 -1
    outer loop
      vertex 5.8115 1.49214 0
      vertex 3.74315 0.0166664 0
      vertex 5.70634 1.8541 0
    endloop
  endfacet
  facet normal 0 0 -1
    outer loop
      vertex 3.74315 -0.0166664 0
      vertex 5.42896 -2.55468 0
      vertex 5.25784 -2.89052 0
    endloop
  endfacet
  facet normal -0 0 -1
    outer loop
      vertex 5.70634 1.8541 0
      vertex 3.74315 0.0166664 0
      vertex 5.57866 2.20875 0
    endloop
  endfacet
  facet normal 0 0 -1
    outer loop
      vertex 1.88601 -3.23333 0
      vertex 5.25784 -2.89052 0
      vertex 5.06597 -3.21496 0
    endloop
  endfacet
  facet normal -0 0 -1
    outer loop
      vertex 5.57866 2.20875 0
      vertex 3.74315 0.0166664 0
      vertex 5.42896 2.55468 0
    endloop
  endfacet
  facet normal 0 0 -1
    outer loop
      vertex 1.88601 -3.23333 0
      vertex 5.06597 -3.21496 0
      vertex 4.8541 -3.52671 0
    endloop
  endfacet
  facet normal -0 0 -1
    outer loop
      vertex 5.42896 2.55468 0
      vertex 3.74315 0.0166664 0
      vertex 5.25784 2.89052 0
    endloop
  endfacet
  facet normal 0 0 -1
    outer loop
      vertex 1.88601 -3.23333 0
      vertex 4.8541 -3.52671 0
      vertex 4.62308 -3.82454 0
    endloop
  endfacet
  facet normal 0 0 -1
    outer loop
      vertex 1.88601 3.23333 0
      vertex 5.25784 2.89052 0
      vertex 3.74315 0.0166664 0
    endloop
  endfacet
  facet normal 0 0 -1
    outer loop
      vertex 1.88601 -3.23333 0
      vertex 4.62308 -3.82454 0
      vertex 4.37381 -4.10728 0
    endloop
  endfacet
  facet normal 0 0 -1
    outer loop
      vertex 5.25784 2.89052 0
      vertex 1.88601 3.23333 0
      vertex 5.06597 3.21496 0
    endloop
  endfacet
  facet normal 0 0 -1
    outer loop
      vertex 1.88601 -3.23333 0
      vertex 4.37381 -4.10728 0
      vertex 4.10728 -4.37381 0
    endloop
  endfacet
  facet normal 0 0 -1
    outer loop
      vertex 5.06597 3.21496 0
      vertex 1.88601 3.23333 0
      vertex 4.8541 3.52671 0
    endloop
  endfacet
  facet normal 0 0 -1
    outer loop
      vertex 1.88601 -3.23333 0
      vertex 4.10728 -4.37381 0
      vertex 3.82454 -4.62308 0
    endloop
  endfacet
  facet normal -0 0 -1
    outer loop
      vertex 4.8541 3.52671 0
      vertex 1.88601 3.23333 0
      vertex 4.62308 3.82454 0
    endloop
  endfacet
  facet normal -0 0 -1
    outer loop
      vertex 4.62308 3.82454 0
      vertex 1.88601 3.23333 0
      vertex 4.37381 4.10728 0
    endloop
  endfacet
  facet normal 0 0 -1
    outer loop
      vertex 1.88601 -3.23333 0
      vertex 3.82454 -4.62308 0
      vertex 3.52671 -4.8541 0
    endloop
  endfacet
  facet normal 0 0 -1
    outer loop
      vertex 1.88601 -3.23333 0
      vertex 3.52671 -4.8541 0
      vertex 3.21496 -5.06597 0
    endloop
  endfacet
  facet normal 0 0 -1
    outer loop
      vertex 1.88601 -3.23333 0
      vertex 3.21496 -5.06597 0
      vertex 2.89052 -5.25784 0
    endloop
  endfacet
  facet normal 0 0 -1
    outer loop
      vertex 1.85714 -3.25 0
      vertex 2.89052 -5.25784 0
      vertex 2.55468 -5.42896 0
    endloop
  endfacet
  facet normal 0 0 -1
    outer loop
      vertex 1.85714 -3.25 0
      vertex 2.55468 -5.42896 0
      vertex 2.20875 -5.57866 0
    endloop
  endfacet
  facet normal -0 0 -1
    outer loop
      vertex 5.25784 -2.89052 0
      vertex 1.88601 -3.23333 0
      vertex 3.74315 -0.0166664 0
    endloop
  endfacet
  facet normal 0 0 -1
    outer loop
      vertex 2.89052 -5.25784 0
      vertex 1.85714 -3.25 0
      vertex 1.88601 -3.23333 0
    endloop
  endfacet
  facet normal 0 0 -1
    outer loop
      vertex 1.8541 -5.70634 0
      vertex 1.85714 -3.25 0
      vertex 2.20875 -5.57866 0
    endloop
  endfacet
  facet normal 0 0 -1
    outer loop
      vertex 1.49214 -5.8115 0
      vertex 1.85714 -3.25 0
      vertex 1.8541 -5.70634 0
    endloop
  endfacet
  facet normal 0 0 -1
    outer loop
      vertex 1.12429 -5.89372 0
      vertex 1.85714 -3.25 0
      vertex 1.49214 -5.8115 0
    endloop
  endfacet
  facet normal 0 0 -1
    outer loop
      vertex 0.751999 -5.95269 0
      vertex 1.85714 -3.25 0
      vertex 1.12429 -5.89372 0
    endloop
  endfacet
  facet normal 0 0 -1
    outer loop
      vertex 0.376742 -5.98816 0
      vertex 1.85714 -3.25 0
      vertex 0.751999 -5.95269 0
    endloop
  endfacet
  facet normal 0 0 -1
    outer loop
      vertex 0 -6 0
      vertex 1.85714 -3.25 0
      vertex 0.376742 -5.98816 0
    endloop
  endfacet
  facet normal 0 0 -1
    outer loop
      vertex -1.85714 -3.25 0
      vertex 0 -6 0
      vertex -0.376742 -5.98816 0
    endloop
  endfacet
  facet normal 0 0 -1
    outer loop
      vertex -1.85714 -3.25 0
      vertex -0.376742 -5.98816 0
      vertex -0.751999 -5.95269 0
    endloop
  endfacet
  facet normal 0 0 -1
    outer loop
      vertex -1.85714 -3.25 0
      vertex -0.751999 -5.95269 0
      vertex -1.12429 -5.89372 0
    endloop
  endfacet
  facet normal 0 0 -1
    outer loop
      vertex -1.85714 -3.25 0
      vertex -1.12429 -5.89372 0
      vertex -1.49214 -5.8115 0
    endloop
  endfacet
  facet normal 0 0 -1
    outer loop
      vertex -1.85714 -3.25 0
      vertex -1.49214 -5.8115 0
      vertex -1.8541 -5.70634 0
    endloop
  endfacet
  facet normal 0 0 -1
    outer loop
      vertex 0 -6 0
      vertex -1.85714 -3.25 0
      vertex 1.85714 -3.25 0
    endloop
  endfacet
  facet normal 0 0 -1
    outer loop
      vertex -1.85714 -3.25 0
      vertex -1.88601 -3.23333 0
      vertex -1.85714 -3.21667 0
    endloop
  endfacet
  facet normal 0 0 -1
    outer loop
      vertex -2.20875 -5.57866 0
      vertex -1.85714 -3.25 0
      vertex -1.8541 -5.70634 0
    endloop
  endfacet
  facet normal 0 0 -1
    outer loop
      vertex -2.55468 -5.42896 0
      vertex -1.85714 -3.25 0
      vertex -2.20875 -5.57866 0
    endloop
  endfacet
  facet normal 0 0 -1
    outer loop
      vertex -2.89052 -5.25784 0
      vertex -1.85714 -3.25 0
      vertex -2.55468 -5.42896 0
    endloop
  endfacet
  facet normal -0 0 -1
    outer loop
      vertex -1.85714 -3.25 0
      vertex -2.89052 -5.25784 0
      vertex -1.88601 -3.23333 0
    endloop
  endfacet
  facet normal 0 0 -1
    outer loop
      vertex -3.21496 -5.06597 0
      vertex -1.88601 -3.23333 0
      vertex -2.89052 -5.25784 0
    endloop
  endfacet
  facet normal 0 0 -1
    outer loop
      vertex -3.52671 -4.8541 0
      vertex -1.88601 -3.23333 0
      vertex -3.21496 -5.06597 0
    endloop
  endfacet
  facet normal 0 0 -1
    outer loop
      vertex -3.82454 -4.62308 0
      vertex -1.88601 -3.23333 0
      vertex -3.52671 -4.8541 0
    endloop
  endfacet
  facet normal 0 0 -1
    outer loop
      vertex -4.37381 -4.10728 0
      vertex -1.88601 -3.23333 0
      vertex -4.10728 -4.37381 0
    endloop
  endfacet
  facet normal 0 0 -1
    outer loop
      vertex -4.10728 -4.37381 0
      vertex -1.88601 -3.23333 0
      vertex -3.82454 -4.62308 0
    endloop
  endfacet
  facet normal -0 0 -1
    outer loop
      vertex 4.37381 4.10728 0
      vertex 1.88601 3.23333 0
      vertex 4.10728 4.37381 0
    endloop
  endfacet
  facet normal -0 0 -1
    outer loop
      vertex 4.10728 4.37381 0
      vertex 1.88601 3.23333 0
      vertex 3.82454 4.62308 0
    endloop
  endfacet
  facet normal -0 0 -1
    outer loop
      vertex 3.82454 4.62308 0
      vertex 1.88601 3.23333 0
      vertex 3.52671 4.8541 0
    endloop
  endfacet
  facet normal -0 0 -1
    outer loop
      vertex 3.52671 4.8541 0
      vertex 1.88601 3.23333 0
      vertex 3.21496 5.06597 0
    endloop
  endfacet
  facet normal -0 0 -1
    outer loop
      vertex 3.21496 5.06597 0
      vertex 1.88601 3.23333 0
      vertex 2.89052 5.25784 0
    endloop
  endfacet
  facet normal 0 0 -1
    outer loop
      vertex 1.85714 3.25 0
      vertex 2.89052 5.25784 0
      vertex 1.88601 3.23333 0
    endloop
  endfacet
  facet normal -0 0 -1
    outer loop
      vertex 2.89052 5.25784 0
      vertex 1.85714 3.25 0
      vertex 2.55468 5.42896 0
    endloop
  endfacet
  facet normal 0 0 -1
    outer loop
      vertex 1.85714 3.25 0
      vertex 1.88601 3.23333 0
      vertex 1.85714 3.21667 0
    endloop
  endfacet
  facet normal -0 0 -1
    outer loop
      vertex 2.55468 5.42896 0
      vertex 1.85714 3.25 0
      vertex 2.20875 5.57866 0
    endloop
  endfacet
  facet normal 0 0 -1
    outer loop
      vertex 1.85714 3.25 0
      vertex 1.8541 5.70634 0
      vertex 2.20875 5.57866 0
    endloop
  endfacet
  facet normal 0 0 -1
    outer loop
      vertex 1.85714 3.25 0
      vertex 1.49214 5.8115 0
      vertex 1.8541 5.70634 0
    endloop
  endfacet
  facet normal 0 0 -1
    outer loop
      vertex 1.85714 3.25 0
      vertex 1.12429 5.89372 0
      vertex 1.49214 5.8115 0
    endloop
  endfacet
  facet normal 0 0 -1
    outer loop
      vertex 1.85714 3.25 0
      vertex 0.751999 5.95269 0
      vertex 1.12429 5.89372 0
    endloop
  endfacet
  facet normal 0 0 -1
    outer loop
      vertex 1.85714 3.25 0
      vertex 0.376742 5.98816 0
      vertex 0.751999 5.95269 0
    endloop
  endfacet
  facet normal 0 0 -1
    outer loop
      vertex 1.85714 3.25 0
      vertex 0 6 0
      vertex 0.376742 5.98816 0
    endloop
  endfacet
  facet normal 0 0 -1
    outer loop
      vertex -1.85714 3.25 0
      vertex 0 6 0
      vertex 1.85714 3.25 0
    endloop
  endfacet
  facet normal 0 0 -1
    outer loop
      vertex 0 6 0
      vertex -1.85714 3.25 0
      vertex -0.376742 5.98816 0
    endloop
  endfacet
  facet normal 0 0 -1
    outer loop
      vertex -0.376742 5.98816 0
      vertex -1.85714 3.25 0
      vertex -0.751999 5.95269 0
    endloop
  endfacet
  facet normal 0 0 -1
    outer loop
      vertex -0.751999 5.95269 0
      vertex -1.85714 3.25 0
      vertex -1.12429 5.89372 0
    endloop
  endfacet
  facet normal 0 0 -1
    outer loop
      vertex -1.12429 5.89372 0
      vertex -1.85714 3.25 0
      vertex -1.49214 5.8115 0
    endloop
  endfacet
  facet normal 0 0 -1
    outer loop
      vertex -1.49214 5.8115 0
      vertex -1.85714 3.25 0
      vertex -1.8541 5.70634 0
    endloop
  endfacet
  facet normal 0 0 -1
    outer loop
      vertex -2.89052 5.25784 0
      vertex -1.85714 3.25 0
      vertex -1.88601 3.23333 0
    endloop
  endfacet
  facet normal 0 0 -1
    outer loop
      vertex -1.85714 3.25 0
      vertex -2.20875 5.57866 0
      vertex -1.8541 5.70634 0
    endloop
  endfacet
  facet normal 0 0 -1
    outer loop
      vertex -1.85714 3.25 0
      vertex -2.55468 5.42896 0
      vertex -2.20875 5.57866 0
    endloop
  endfacet
  facet normal 0 0 -1
    outer loop
      vertex -1.85714 3.25 0
      vertex -2.89052 5.25784 0
      vertex -2.55468 5.42896 0
    endloop
  endfacet
  facet normal 0 0 -1
    outer loop
      vertex -1.88601 3.23333 0
      vertex -3.21496 5.06597 0
      vertex -2.89052 5.25784 0
    endloop
  endfacet
  facet normal 0 0 -1
    outer loop
      vertex -1.88601 3.23333 0
      vertex -3.52671 4.8541 0
      vertex -3.21496 5.06597 0
    endloop
  endfacet
  facet normal 0 0 -1
    outer loop
      vertex -5.25784 2.89052 0
      vertex -1.88601 3.23333 0
      vertex -3.74315 0.0166664 0
    endloop
  endfacet
  facet normal 0 0 -1
    outer loop
      vertex -1.88601 3.23333 0
      vertex -3.82454 4.62308 0
      vertex -3.52671 4.8541 0
    endloop
  endfacet
  facet normal 0 0 -1
    outer loop
      vertex -4.62308 -3.82454 0
      vertex -1.88601 -3.23333 0
      vertex -4.37381 -4.10728 0
    endloop
  endfacet
  facet normal 0 0 -1
    outer loop
      vertex -4.8541 -3.52671 0
      vertex -1.88601 -3.23333 0
      vertex -4.62308 -3.82454 0
    endloop
  endfacet
  facet normal 0 0 -1
    outer loop
      vertex -1.88601 3.23333 0
      vertex -4.10728 4.37381 0
      vertex -3.82454 4.62308 0
    endloop
  endfacet
  facet normal 0 0 -1
    outer loop
      vertex -5.06597 -3.21496 0
      vertex -1.88601 -3.23333 0
      vertex -4.8541 -3.52671 0
    endloop
  endfacet
  facet normal 0 0 -1
    outer loop
      vertex -1.88601 3.23333 0
      vertex -4.37381 4.10728 0
      vertex -4.10728 4.37381 0
    endloop
  endfacet
  facet normal 0 0 -1
    outer loop
      vertex -5.25784 -2.89052 0
      vertex -1.88601 -3.23333 0
      vertex -5.06597 -3.21496 0
    endloop
  endfacet
  facet normal 0 0 -1
    outer loop
      vertex -1.88601 3.23333 0
      vertex -4.62308 3.82454 0
      vertex -4.37381 4.10728 0
    endloop
  endfacet
  facet normal 0 0 -1
    outer loop
      vertex -1.88601 -3.23333 0
      vertex -5.25784 -2.89052 0
      vertex -3.74315 -0.0166664 0
    endloop
  endfacet
  facet normal 0 0 -1
    outer loop
      vertex -1.88601 3.23333 0
      vertex -4.8541 3.52671 0
      vertex -4.62308 3.82454 0
    endloop
  endfacet
  facet normal 0 0 -1
    outer loop
      vertex -5.42896 -2.55468 0
      vertex -3.74315 -0.0166664 0
      vertex -5.25784 -2.89052 0
    endloop
  endfacet
  facet normal -0 0 -1
    outer loop
      vertex -1.88601 3.23333 0
      vertex -5.06597 3.21496 0
      vertex -4.8541 3.52671 0
    endloop
  endfacet
  facet normal 0 0 -1
    outer loop
      vertex -5.57866 -2.20875 0
      vertex -3.74315 -0.0166664 0
      vertex -5.42896 -2.55468 0
    endloop
  endfacet
  facet normal 0 0 -1
    outer loop
      vertex -1.88601 3.23333 0
      vertex -5.25784 2.89052 0
      vertex -5.06597 3.21496 0
    endloop
  endfacet
  facet normal 0 0 -1
    outer loop
      vertex -5.70634 -1.8541 0
      vertex -3.74315 -0.0166664 0
      vertex -5.57866 -2.20875 0
    endloop
  endfacet
  facet normal 0 0 -1
    outer loop
      vertex -3.74315 0.0166664 0
      vertex -5.42896 2.55468 0
      vertex -5.25784 2.89052 0
    endloop
  endfacet
  facet normal 0 0 -1
    outer loop
      vertex -5.8115 -1.49214 0
      vertex -3.74315 -0.0166664 0
      vertex -5.70634 -1.8541 0
    endloop
  endfacet
  facet normal 0 0 -1
    outer loop
      vertex -3.74315 0.0166664 0
      vertex -5.57866 2.20875 0
      vertex -5.42896 2.55468 0
    endloop
  endfacet
  facet normal 0 0 -1
    outer loop
      vertex -5.89372 -1.12429 0
      vertex -3.74315 -0.0166664 0
      vertex -5.8115 -1.49214 0
    endloop
  endfacet
  facet normal 0 0 -1
    outer loop
      vertex -3.74315 0.0166664 0
      vertex -5.70634 1.8541 0
      vertex -5.57866 2.20875 0
    endloop
  endfacet
  facet normal 0 0 -1
    outer loop
      vertex -5.95269 -0.751999 0
      vertex -3.74315 -0.0166664 0
      vertex -5.89372 -1.12429 0
    endloop
  endfacet
  facet normal 0 0 -1
    outer loop
      vertex -3.74315 0.0166664 0
      vertex -5.8115 1.49214 0
      vertex -5.70634 1.8541 0
    endloop
  endfacet
  facet normal 0 0 -1
    outer loop
      vertex -5.98816 -0.376742 0
      vertex -3.74315 -0.0166664 0
      vertex -5.95269 -0.751999 0
    endloop
  endfacet
  facet normal 0 0 -1
    outer loop
      vertex -3.74315 0.0166664 0
      vertex -5.89372 1.12429 0
      vertex -5.8115 1.49214 0
    endloop
  endfacet
  facet normal 0 0 -1
    outer loop
      vertex -6 0 0
      vertex -3.74315 -0.0166664 0
      vertex -5.98816 -0.376742 0
    endloop
  endfacet
  facet normal 0 0 -1
    outer loop
      vertex -3.74315 0.0166664 0
      vertex -5.95269 0.751999 0
      vertex -5.89372 1.12429 0
    endloop
  endfacet
  facet normal 0 0 -1
    outer loop
      vertex -3.74315 -0.0166664 0
      vertex -6 0 0
      vertex -3.74315 0.0166664 0
    endloop
  endfacet
  facet normal 0 0 -1
    outer loop
      vertex -3.74315 0.0166664 0
      vertex -5.98816 0.376742 0
      vertex -5.95269 0.751999 0
    endloop
  endfacet
  facet normal -0 0 -1
    outer loop
      vertex -3.74315 0.0166664 0
      vertex -6 0 0
      vertex -5.98816 0.376742 0
    endloop
  endfacet
  facet normal -0 0 -1
    outer loop
      vertex 1.88601 -3.23333 0
      vertex 1.85714 -3.25 0
      vertex 1.85714 -3.21667 0
    endloop
  endfacet
  facet normal 0.661314 0.75011 -0
    outer loop
      vertex 4.10728 4.37381 0
      vertex 3.82454 4.62308 25
      vertex 4.10728 4.37381 25
    endloop
  endfacet
  facet normal 0.661314 0.75011 0
    outer loop
      vertex 3.82454 4.62308 25
      vertex 4.10728 4.37381 0
      vertex 3.82454 4.62308 0
    endloop
  endfacet
  facet normal 0.891005 -0.453993 0
    outer loop
      vertex 5.25784 -2.89052 25
      vertex 5.42896 -2.55468 0
      vertex 5.42896 -2.55468 25
    endloop
  endfacet
  facet normal 0.891005 -0.453993 0
    outer loop
      vertex 5.42896 -2.55468 0
      vertex 5.25784 -2.89052 25
      vertex 5.25784 -2.89052 0
    endloop
  endfacet
  facet normal -0.975919 -0.218133 0
    outer loop
      vertex -5.8115 -1.49214 0
      vertex -5.89372 -1.12429 25
      vertex -5.89372 -1.12429 0
    endloop
  endfacet
  facet normal -0.975919 -0.218133 0
    outer loop
      vertex -5.89372 -1.12429 25
      vertex -5.8115 -1.49214 0
      vertex -5.8115 -1.49214 25
    endloop
  endfacet
  facet normal 0.917752 0.397154 0
    outer loop
      vertex 5.57866 2.20875 25
      vertex 5.42896 2.55468 0
      vertex 5.42896 2.55468 25
    endloop
  endfacet
  facet normal 0.917752 0.397154 0
    outer loop
      vertex 5.42896 2.55468 0
      vertex 5.57866 2.20875 25
      vertex 5.57866 2.20875 0
    endloop
  endfacet
  facet normal 0.891005 0.453993 0
    outer loop
      vertex 5.42896 2.55468 25
      vertex 5.25784 2.89052 0
      vertex 5.25784 2.89052 25
    endloop
  endfacet
  facet normal 0.891005 0.453993 0
    outer loop
      vertex 5.25784 2.89052 0
      vertex 5.42896 2.55468 25
      vertex 5.42896 2.55468 0
    endloop
  endfacet
  facet normal 0.278993 -0.960293 0
    outer loop
      vertex 1.49214 -5.8115 0
      vertex 1.8541 -5.70634 25
      vertex 1.49214 -5.8115 25
    endloop
  endfacet
  facet normal 0.278993 -0.960293 0
    outer loop
      vertex 1.8541 -5.70634 25
      vertex 1.49214 -5.8115 0
      vertex 1.8541 -5.70634 0
    endloop
  endfacet
  facet normal -0.562092 0.827075 0
    outer loop
      vertex -3.21496 5.06597 0
      vertex -3.52671 4.8541 25
      vertex -3.21496 5.06597 25
    endloop
  endfacet
  facet normal -0.562092 0.827075 0
    outer loop
      vertex -3.52671 4.8541 25
      vertex -3.21496 5.06597 0
      vertex -3.52671 4.8541 0
    endloop
  endfacet
  facet normal -0.156447 0.987686 0
    outer loop
      vertex -0.751999 5.95269 0
      vertex -1.12429 5.89372 25
      vertex -0.751999 5.95269 25
    endloop
  endfacet
  facet normal -0.156447 0.987686 0
    outer loop
      vertex -1.12429 5.89372 25
      vertex -0.751999 5.95269 0
      vertex -1.12429 5.89372 0
    endloop
  endfacet
  facet normal 0.562092 0.827075 -0
    outer loop
      vertex 3.52671 4.8541 0
      vertex 3.21496 5.06597 25
      vertex 3.52671 4.8541 25
    endloop
  endfacet
  facet normal 0.562092 0.827075 0
    outer loop
      vertex 3.21496 5.06597 25
      vertex 3.52671 4.8541 0
      vertex 3.21496 5.06597 0
    endloop
  endfacet
  facet normal 0.790156 -0.612906 0
    outer loop
      vertex 4.62308 -3.82454 25
      vertex 4.8541 -3.52671 0
      vertex 4.8541 -3.52671 25
    endloop
  endfacet
  facet normal 0.790156 -0.612906 0
    outer loop
      vertex 4.8541 -3.52671 0
      vertex 4.62308 -3.82454 25
      vertex 4.62308 -3.82454 0
    endloop
  endfacet
  facet normal -0.860746 -0.509035 0
    outer loop
      vertex -5.06597 -3.21496 0
      vertex -5.25784 -2.89052 25
      vertex -5.25784 -2.89052 0
    endloop
  endfacet
  facet normal -0.860746 -0.509035 0
    outer loop
      vertex -5.25784 -2.89052 25
      vertex -5.06597 -3.21496 0
      vertex -5.06597 -3.21496 25
    endloop
  endfacet
  facet normal -0.827075 -0.562092 0
    outer loop
      vertex -4.8541 -3.52671 0
      vertex -5.06597 -3.21496 25
      vertex -5.06597 -3.21496 0
    endloop
  endfacet
  facet normal -0.827075 -0.562092 0
    outer loop
      vertex -5.06597 -3.21496 25
      vertex -4.8541 -3.52671 0
      vertex -4.8541 -3.52671 25
    endloop
  endfacet
  facet normal -0.218133 0.975919 0
    outer loop
      vertex -1.12429 5.89372 0
      vertex -1.49214 5.8115 25
      vertex -1.12429 5.89372 25
    endloop
  endfacet
  facet normal -0.218133 0.975919 0
    outer loop
      vertex -1.49214 5.8115 25
      vertex -1.12429 5.89372 0
      vertex -1.49214 5.8115 0
    endloop
  endfacet
  facet normal 0.397154 0.917752 -0
    outer loop
      vertex 2.55468 5.42896 0
      vertex 2.20875 5.57866 25
      vertex 2.55468 5.42896 25
    endloop
  endfacet
  facet normal 0.397154 0.917752 0
    outer loop
      vertex 2.20875 5.57866 25
      vertex 2.55468 5.42896 0
      vertex 2.20875 5.57866 0
    endloop
  endfacet
  facet normal -0.612906 0.790156 0
    outer loop
      vertex -3.52671 4.8541 0
      vertex -3.82454 4.62308 25
      vertex -3.52671 4.8541 25
    endloop
  endfacet
  facet normal -0.612906 0.790156 0
    outer loop
      vertex -3.82454 4.62308 25
      vertex -3.52671 4.8541 0
      vertex -3.82454 4.62308 0
    endloop
  endfacet
  facet normal -0.999507 0.0314118 0
    outer loop
      vertex -6 0 0
      vertex -5.98816 0.376742 25
      vertex -5.98816 0.376742 0
    endloop
  endfacet
  facet normal -0.999507 0.0314118 0
    outer loop
      vertex -5.98816 0.376742 25
      vertex -6 0 0
      vertex -6 0 25
    endloop
  endfacet
  facet normal -0.0314118 -0.999507 0
    outer loop
      vertex -0.376742 -5.98816 0
      vertex 0 -6 25
      vertex -0.376742 -5.98816 25
    endloop
  endfacet
  facet normal -0.0314118 -0.999507 -0
    outer loop
      vertex 0 -6 25
      vertex -0.376742 -5.98816 0
      vertex 0 -6 0
    endloop
  endfacet
  facet normal 0.397154 -0.917752 0
    outer loop
      vertex 2.20875 -5.57866 0
      vertex 2.55468 -5.42896 25
      vertex 2.20875 -5.57866 25
    endloop
  endfacet
  facet normal 0.397154 -0.917752 0
    outer loop
      vertex 2.55468 -5.42896 25
      vertex 2.20875 -5.57866 0
      vertex 2.55468 -5.42896 0
    endloop
  endfacet
  facet normal 0.790156 0.612906 0
    outer loop
      vertex 4.8541 3.52671 25
      vertex 4.62308 3.82454 0
      vertex 4.62308 3.82454 25
    endloop
  endfacet
  facet normal 0.790156 0.612906 0
    outer loop
      vertex 4.62308 3.82454 0
      vertex 4.8541 3.52671 25
      vertex 4.8541 3.52671 0
    endloop
  endfacet
  facet normal 0.453993 0.891005 -0
    outer loop
      vertex 2.89052 5.25784 0
      vertex 2.55468 5.42896 25
      vertex 2.89052 5.25784 25
    endloop
  endfacet
  facet normal 0.453993 0.891005 0
    outer loop
      vertex 2.55468 5.42896 25
      vertex 2.89052 5.25784 0
      vertex 2.55468 5.42896 0
    endloop
  endfacet
  facet normal 0.987686 -0.156447 0
    outer loop
      vertex 5.89372 -1.12429 25
      vertex 5.95269 -0.751999 0
      vertex 5.95269 -0.751999 25
    endloop
  endfacet
  facet normal 0.987686 -0.156447 0
    outer loop
      vertex 5.95269 -0.751999 0
      vertex 5.89372 -1.12429 25
      vertex 5.89372 -1.12429 0
    endloop
  endfacet
  facet normal 0.707107 -0.707107 0
    outer loop
      vertex 4.10728 -4.37381 25
      vertex 4.37381 -4.10728 0
      vertex 4.37381 -4.10728 25
    endloop
  endfacet
  facet normal 0.707107 -0.707107 0
    outer loop
      vertex 4.37381 -4.10728 0
      vertex 4.10728 -4.37381 25
      vertex 4.10728 -4.37381 0
    endloop
  endfacet
  facet normal -0.995563 -0.0941024 0
    outer loop
      vertex -5.95269 -0.751999 0
      vertex -5.98816 -0.376742 25
      vertex -5.98816 -0.376742 0
    endloop
  endfacet
  facet normal -0.995563 -0.0941024 0
    outer loop
      vertex -5.98816 -0.376742 25
      vertex -5.95269 -0.751999 0
      vertex -5.95269 -0.751999 25
    endloop
  endfacet
  facet normal 0.827075 0.562092 0
    outer loop
      vertex 5.06597 3.21496 25
      vertex 4.8541 3.52671 0
      vertex 4.8541 3.52671 25
    endloop
  endfacet
  facet normal 0.827075 0.562092 0
    outer loop
      vertex 4.8541 3.52671 0
      vertex 5.06597 3.21496 25
      vertex 5.06597 3.21496 0
    endloop
  endfacet
  facet normal -0.999507 -0.0314118 0
    outer loop
      vertex -5.98816 -0.376742 0
      vertex -6 0 25
      vertex -6 0 0
    endloop
  endfacet
  facet normal -0.999507 -0.0314118 0
    outer loop
      vertex -6 0 25
      vertex -5.98816 -0.376742 0
      vertex -5.98816 -0.376742 25
    endloop
  endfacet
  facet normal 0.156447 -0.987686 0
    outer loop
      vertex 0.751999 -5.95269 0
      vertex 1.12429 -5.89372 25
      vertex 0.751999 -5.95269 25
    endloop
  endfacet
  facet normal 0.156447 -0.987686 0
    outer loop
      vertex 1.12429 -5.89372 25
      vertex 0.751999 -5.95269 0
      vertex 1.12429 -5.89372 0
    endloop
  endfacet
  facet normal -0.940882 0.338734 0
    outer loop
      vertex -5.70634 1.8541 0
      vertex -5.57866 2.20875 25
      vertex -5.57866 2.20875 0
    endloop
  endfacet
  facet normal -0.940882 0.338734 0
    outer loop
      vertex -5.57866 2.20875 25
      vertex -5.70634 1.8541 0
      vertex -5.70634 1.8541 25
    endloop
  endfacet
  facet normal -0.917752 0.397154 0
    outer loop
      vertex -5.57866 2.20875 0
      vertex -5.42896 2.55468 25
      vertex -5.42896 2.55468 0
    endloop
  endfacet
  facet normal -0.917752 0.397154 0
    outer loop
      vertex -5.42896 2.55468 25
      vertex -5.57866 2.20875 0
      vertex -5.57866 2.20875 25
    endloop
  endfacet
  facet normal -0.562092 -0.827075 0
    outer loop
      vertex -3.52671 -4.8541 0
      vertex -3.21496 -5.06597 25
      vertex -3.52671 -4.8541 25
    endloop
  endfacet
  facet normal -0.562092 -0.827075 -0
    outer loop
      vertex -3.21496 -5.06597 25
      vertex -3.52671 -4.8541 0
      vertex -3.21496 -5.06597 0
    endloop
  endfacet
  facet normal 0.509035 -0.860746 0
    outer loop
      vertex 2.89052 -5.25784 0
      vertex 3.21496 -5.06597 25
      vertex 2.89052 -5.25784 25
    endloop
  endfacet
  facet normal 0.509035 -0.860746 0
    outer loop
      vertex 3.21496 -5.06597 25
      vertex 2.89052 -5.25784 0
      vertex 3.21496 -5.06597 0
    endloop
  endfacet
  facet normal 0.453993 -0.891005 0
    outer loop
      vertex 2.55468 -5.42896 0
      vertex 2.89052 -5.25784 25
      vertex 2.55468 -5.42896 25
    endloop
  endfacet
  facet normal 0.453993 -0.891005 0
    outer loop
      vertex 2.89052 -5.25784 25
      vertex 2.55468 -5.42896 0
      vertex 2.89052 -5.25784 0
    endloop
  endfacet
  facet normal -0.338734 -0.940882 0
    outer loop
      vertex -2.20875 -5.57866 0
      vertex -1.8541 -5.70634 25
      vertex -2.20875 -5.57866 25
    endloop
  endfacet
  facet normal -0.338734 -0.940882 -0
    outer loop
      vertex -1.8541 -5.70634 25
      vertex -2.20875 -5.57866 0
      vertex -1.8541 -5.70634 0
    endloop
  endfacet
  facet normal -0.509035 0.860746 0
    outer loop
      vertex -2.89052 5.25784 0
      vertex -3.21496 5.06597 25
      vertex -2.89052 5.25784 25
    endloop
  endfacet
  facet normal -0.509035 0.860746 0
    outer loop
      vertex -3.21496 5.06597 25
      vertex -2.89052 5.25784 0
      vertex -3.21496 5.06597 0
    endloop
  endfacet
  facet normal -0.509035 -0.860746 0
    outer loop
      vertex -3.21496 -5.06597 0
      vertex -2.89052 -5.25784 25
      vertex -3.21496 -5.06597 25
    endloop
  endfacet
  facet normal -0.509035 -0.860746 -0
    outer loop
      vertex -2.89052 -5.25784 25
      vertex -3.21496 -5.06597 0
      vertex -2.89052 -5.25784 0
    endloop
  endfacet
  facet normal -0.707107 -0.707107 0
    outer loop
      vertex -4.10728 -4.37381 0
      vertex -4.37381 -4.10728 25
      vertex -4.37381 -4.10728 0
    endloop
  endfacet
  facet normal -0.707107 -0.707107 0
    outer loop
      vertex -4.37381 -4.10728 25
      vertex -4.10728 -4.37381 0
      vertex -4.10728 -4.37381 25
    endloop
  endfacet
  facet normal 0.338734 -0.940882 0
    outer loop
      vertex 1.8541 -5.70634 0
      vertex 2.20875 -5.57866 25
      vertex 1.8541 -5.70634 25
    endloop
  endfacet
  facet normal 0.338734 -0.940882 0
    outer loop
      vertex 2.20875 -5.57866 25
      vertex 1.8541 -5.70634 0
      vertex 2.20875 -5.57866 0
    endloop
  endfacet
  facet normal -0.75011 0.661314 0
    outer loop
      vertex -4.62308 3.82454 0
      vertex -4.37381 4.10728 25
      vertex -4.37381 4.10728 0
    endloop
  endfacet
  facet normal -0.75011 0.661314 0
    outer loop
      vertex -4.37381 4.10728 25
      vertex -4.62308 3.82454 0
      vertex -4.62308 3.82454 25
    endloop
  endfacet
  facet normal 0.661314 -0.75011 0
    outer loop
      vertex 3.82454 -4.62308 0
      vertex 4.10728 -4.37381 25
      vertex 3.82454 -4.62308 25
    endloop
  endfacet
  facet normal 0.661314 -0.75011 0
    outer loop
      vertex 4.10728 -4.37381 25
      vertex 3.82454 -4.62308 0
      vertex 4.10728 -4.37381 0
    endloop
  endfacet
  facet normal -0.790156 -0.612906 0
    outer loop
      vertex -4.62308 -3.82454 0
      vertex -4.8541 -3.52671 25
      vertex -4.8541 -3.52671 0
    endloop
  endfacet
  facet normal -0.790156 -0.612906 0
    outer loop
      vertex -4.8541 -3.52671 25
      vertex -4.62308 -3.82454 0
      vertex -4.62308 -3.82454 25
    endloop
  endfacet
  facet normal 0.156447 0.987686 -0
    outer loop
      vertex 1.12429 5.89372 0
      vertex 0.751999 5.95269 25
      vertex 1.12429 5.89372 25
    endloop
  endfacet
  facet normal 0.156447 0.987686 0
    outer loop
      vertex 0.751999 5.95269 25
      vertex 1.12429 5.89372 0
      vertex 0.751999 5.95269 0
    endloop
  endfacet
  facet normal 0.278993 0.960293 -0
    outer loop
      vertex 1.8541 5.70634 0
      vertex 1.49214 5.8115 25
      vertex 1.8541 5.70634 25
    endloop
  endfacet
  facet normal 0.278993 0.960293 0
    outer loop
      vertex 1.49214 5.8115 25
      vertex 1.8541 5.70634 0
      vertex 1.49214 5.8115 0
    endloop
  endfacet
  facet normal 0.917752 -0.397154 0
    outer loop
      vertex 5.42896 -2.55468 25
      vertex 5.57866 -2.20875 0
      vertex 5.57866 -2.20875 25
    endloop
  endfacet
  facet normal 0.917752 -0.397154 0
    outer loop
      vertex 5.57866 -2.20875 0
      vertex 5.42896 -2.55468 25
      vertex 5.42896 -2.55468 0
    endloop
  endfacet
  facet normal 0.0941024 -0.995563 0
    outer loop
      vertex 0.376742 -5.98816 0
      vertex 0.751999 -5.95269 25
      vertex 0.376742 -5.98816 25
    endloop
  endfacet
  facet normal 0.0941024 -0.995563 0
    outer loop
      vertex 0.751999 -5.95269 25
      vertex 0.376742 -5.98816 0
      vertex 0.751999 -5.95269 0
    endloop
  endfacet
  facet normal -0.278993 0.960293 0
    outer loop
      vertex -1.49214 5.8115 0
      vertex -1.8541 5.70634 25
      vertex -1.49214 5.8115 25
    endloop
  endfacet
  facet normal -0.278993 0.960293 0
    outer loop
      vertex -1.8541 5.70634 25
      vertex -1.49214 5.8115 0
      vertex -1.8541 5.70634 0
    endloop
  endfacet
  facet normal -0.891005 0.453993 0
    outer loop
      vertex -5.42896 2.55468 0
      vertex -5.25784 2.89052 25
      vertex -5.25784 2.89052 0
    endloop
  endfacet
  facet normal -0.891005 0.453993 0
    outer loop
      vertex -5.25784 2.89052 25
      vertex -5.42896 2.55468 0
      vertex -5.42896 2.55468 25
    endloop
  endfacet
  facet normal 0.338734 0.940882 -0
    outer loop
      vertex 2.20875 5.57866 0
      vertex 1.8541 5.70634 25
      vertex 2.20875 5.57866 25
    endloop
  endfacet
  facet normal 0.338734 0.940882 0
    outer loop
      vertex 1.8541 5.70634 25
      vertex 2.20875 5.57866 0
      vertex 1.8541 5.70634 0
    endloop
  endfacet
  facet normal -0.218133 -0.975919 0
    outer loop
      vertex -1.49214 -5.8115 0
      vertex -1.12429 -5.89372 25
      vertex -1.49214 -5.8115 25
    endloop
  endfacet
  facet normal -0.218133 -0.975919 -0
    outer loop
      vertex -1.12429 -5.89372 25
      vertex -1.49214 -5.8115 0
      vertex -1.12429 -5.89372 0
    endloop
  endfacet
  facet normal -0.975919 0.218133 0
    outer loop
      vertex -5.89372 1.12429 0
      vertex -5.8115 1.49214 25
      vertex -5.8115 1.49214 0
    endloop
  endfacet
  facet normal -0.975919 0.218133 0
    outer loop
      vertex -5.8115 1.49214 25
      vertex -5.89372 1.12429 0
      vertex -5.89372 1.12429 25
    endloop
  endfacet
  facet normal 0.860746 -0.509035 0
    outer loop
      vertex 5.06597 -3.21496 25
      vertex 5.25784 -2.89052 0
      vertex 5.25784 -2.89052 25
    endloop
  endfacet
  facet normal 0.860746 -0.509035 0
    outer loop
      vertex 5.25784 -2.89052 0
      vertex 5.06597 -3.21496 25
      vertex 5.06597 -3.21496 0
    endloop
  endfacet
  facet normal 0.960293 -0.278993 0
    outer loop
      vertex 5.70634 -1.8541 25
      vertex 5.8115 -1.49214 0
      vertex 5.8115 -1.49214 25
    endloop
  endfacet
  facet normal 0.960293 -0.278993 0
    outer loop
      vertex 5.8115 -1.49214 0
      vertex 5.70634 -1.8541 25
      vertex 5.70634 -1.8541 0
    endloop
  endfacet
  facet normal -0.707107 0.707107 0
    outer loop
      vertex -4.37381 4.10728 0
      vertex -4.10728 4.37381 25
      vertex -4.10728 4.37381 0
    endloop
  endfacet
  facet normal -0.707107 0.707107 0
    outer loop
      vertex -4.10728 4.37381 25
      vertex -4.37381 4.10728 0
      vertex -4.37381 4.10728 25
    endloop
  endfacet
  facet normal -0.156447 -0.987686 0
    outer loop
      vertex -1.12429 -5.89372 0
      vertex -0.751999 -5.95269 25
      vertex -1.12429 -5.89372 25
    endloop
  endfacet
  facet normal -0.156447 -0.987686 -0
    outer loop
      vertex -0.751999 -5.95269 25
      vertex -1.12429 -5.89372 0
      vertex -0.751999 -5.95269 0
    endloop
  endfacet
  facet normal 0.218133 -0.975919 0
    outer loop
      vertex 1.12429 -5.89372 0
      vertex 1.49214 -5.8115 25
      vertex 1.12429 -5.89372 25
    endloop
  endfacet
  facet normal 0.218133 -0.975919 0
    outer loop
      vertex 1.49214 -5.8115 25
      vertex 1.12429 -5.89372 0
      vertex 1.49214 -5.8115 0
    endloop
  endfacet
  facet normal -0.995563 0.0941024 0
    outer loop
      vertex -5.98816 0.376742 0
      vertex -5.95269 0.751999 25
      vertex -5.95269 0.751999 0
    endloop
  endfacet
  facet normal -0.995563 0.0941024 0
    outer loop
      vertex -5.95269 0.751999 25
      vertex -5.98816 0.376742 0
      vertex -5.98816 0.376742 25
    endloop
  endfacet
  facet normal -0.453993 0.891005 0
    outer loop
      vertex -2.55468 5.42896 0
      vertex -2.89052 5.25784 25
      vertex -2.55468 5.42896 25
    endloop
  endfacet
  facet normal -0.453993 0.891005 0
    outer loop
      vertex -2.89052 5.25784 25
      vertex -2.55468 5.42896 0
      vertex -2.89052 5.25784 0
    endloop
  endfacet
  facet normal -0.397154 0.917752 0
    outer loop
      vertex -2.20875 5.57866 0
      vertex -2.55468 5.42896 25
      vertex -2.20875 5.57866 25
    endloop
  endfacet
  facet normal -0.397154 0.917752 0
    outer loop
      vertex -2.55468 5.42896 25
      vertex -2.20875 5.57866 0
      vertex -2.55468 5.42896 0
    endloop
  endfacet
  facet normal -0.278993 -0.960293 0
    outer loop
      vertex -1.8541 -5.70634 0
      vertex -1.49214 -5.8115 25
      vertex -1.8541 -5.70634 25
    endloop
  endfacet
  facet normal -0.278993 -0.960293 -0
    outer loop
      vertex -1.49214 -5.8115 25
      vertex -1.8541 -5.70634 0
      vertex -1.49214 -5.8115 0
    endloop
  endfacet
  facet normal -0.397154 -0.917752 0
    outer loop
      vertex -2.55468 -5.42896 0
      vertex -2.20875 -5.57866 25
      vertex -2.55468 -5.42896 25
    endloop
  endfacet
  facet normal -0.397154 -0.917752 -0
    outer loop
      vertex -2.20875 -5.57866 25
      vertex -2.55468 -5.42896 0
      vertex -2.20875 -5.57866 0
    endloop
  endfacet
  facet normal -0.960293 0.278993 0
    outer loop
      vertex -5.8115 1.49214 0
      vertex -5.70634 1.8541 25
      vertex -5.70634 1.8541 0
    endloop
  endfacet
  facet normal -0.960293 0.278993 0
    outer loop
      vertex -5.70634 1.8541 25
      vertex -5.8115 1.49214 0
      vertex -5.8115 1.49214 25
    endloop
  endfacet
  facet normal 0 0 1
    outer loop
      vertex -1.85714 -3.21667 25
      vertex -1.88601 -3.23333 25
      vertex -1.85714 -3.25 25
    endloop
  endfacet
  facet normal 0 0 1
    outer loop
      vertex 3.74315 0.0166664 25
      vertex 3.71429 0 25
      vertex 3.74315 -0.0166664 25
    endloop
  endfacet
  facet normal -0 0 1
    outer loop
      vertex 3.74315 0.0166664 25
      vertex 6 0 25
      vertex 5.98816 0.376742 25
    endloop
  endfacet
  facet normal 0 0 1
    outer loop
      vertex 3.74315 0.0166664 25
      vertex 5.98816 0.376742 25
      vertex 5.95269 0.751999 25
    endloop
  endfacet
  facet normal 0 0 1
    outer loop
      vertex 3.74315 -0.0166664 25
      vertex 6 0 25
      vertex 3.74315 0.0166664 25
    endloop
  endfacet
  facet normal 0 0 1
    outer loop
      vertex 3.74315 0.0166664 25
      vertex 5.95269 0.751999 25
      vertex 5.89372 1.12429 25
    endloop
  endfacet
  facet normal 0 0 1
    outer loop
      vertex 6 0 25
      vertex 3.74315 -0.0166664 25
      vertex 5.98816 -0.376742 25
    endloop
  endfacet
  facet normal 0 0 1
    outer loop
      vertex 3.74315 0.0166664 25
      vertex 5.89372 1.12429 25
      vertex 5.8115 1.49214 25
    endloop
  endfacet
  facet normal 0 0 1
    outer loop
      vertex 5.98816 -0.376742 25
      vertex 3.74315 -0.0166664 25
      vertex 5.95269 -0.751999 25
    endloop
  endfacet
  facet normal 0 0 1
    outer loop
      vertex 3.74315 0.0166664 25
      vertex 5.8115 1.49214 25
      vertex 5.70634 1.8541 25
    endloop
  endfacet
  facet normal 0 0 1
    outer loop
      vertex 5.95269 -0.751999 25
      vertex 3.74315 -0.0166664 25
      vertex 5.89372 -1.12429 25
    endloop
  endfacet
  facet normal 0 0 1
    outer loop
      vertex 3.74315 0.0166664 25
      vertex 5.70634 1.8541 25
      vertex 5.57866 2.20875 25
    endloop
  endfacet
  facet normal 0 0 1
    outer loop
      vertex 5.89372 -1.12429 25
      vertex 3.74315 -0.0166664 25
      vertex 5.8115 -1.49214 25
    endloop
  endfacet
  facet normal 0 0 1
    outer loop
      vertex 3.74315 0.0166664 25
      vertex 5.57866 2.20875 25
      vertex 5.42896 2.55468 25
    endloop
  endfacet
  facet normal 0 0 1
    outer loop
      vertex 5.8115 -1.49214 25
      vertex 3.74315 -0.0166664 25
      vertex 5.70634 -1.8541 25
    endloop
  endfacet
  facet normal 0 0 1
    outer loop
      vertex 3.74315 0.0166664 25
      vertex 5.42896 2.55468 25
      vertex 5.25784 2.89052 25
    endloop
  endfacet
  facet normal 0 0 1
    outer loop
      vertex 5.70634 -1.8541 25
      vertex 3.74315 -0.0166664 25
      vertex 5.57866 -2.20875 25
    endloop
  endfacet
  facet normal 0 0 1
    outer loop
      vertex 1.88601 3.23333 25
      vertex 5.25784 2.89052 25
      vertex 5.06597 3.21496 25
    endloop
  endfacet
  facet normal 0 0 1
    outer loop
      vertex 5.57866 -2.20875 25
      vertex 3.74315 -0.0166664 25
      vertex 5.42896 -2.55468 25
    endloop
  endfacet
  facet normal -0 0 1
    outer loop
      vertex 1.88601 3.23333 25
      vertex 5.06597 3.21496 25
      vertex 4.8541 3.52671 25
    endloop
  endfacet
  facet normal 0 0 1
    outer loop
      vertex 5.42896 -2.55468 25
      vertex 3.74315 -0.0166664 25
      vertex 5.25784 -2.89052 25
    endloop
  endfacet
  facet normal 0 0 1
    outer loop
      vertex 1.88601 3.23333 25
      vertex 4.8541 3.52671 25
      vertex 4.62308 3.82454 25
    endloop
  endfacet
  facet normal 0 0 1
    outer loop
      vertex 1.88601 -3.23333 25
      vertex 5.25784 -2.89052 25
      vertex 3.74315 -0.0166664 25
    endloop
  endfacet
  facet normal 0 0 1
    outer loop
      vertex 1.88601 3.23333 25
      vertex 4.62308 3.82454 25
      vertex 4.37381 4.10728 25
    endloop
  endfacet
  facet normal 0 0 1
    outer loop
      vertex 5.25784 -2.89052 25
      vertex 1.88601 -3.23333 25
      vertex 5.06597 -3.21496 25
    endloop
  endfacet
  facet normal 0 0 1
    outer loop
      vertex 1.88601 3.23333 25
      vertex 4.37381 4.10728 25
      vertex 4.10728 4.37381 25
    endloop
  endfacet
  facet normal 0 0 1
    outer loop
      vertex 5.06597 -3.21496 25
      vertex 1.88601 -3.23333 25
      vertex 4.8541 -3.52671 25
    endloop
  endfacet
  facet normal 0 0 1
    outer loop
      vertex 1.88601 3.23333 25
      vertex 4.10728 4.37381 25
      vertex 3.82454 4.62308 25
    endloop
  endfacet
  facet normal 0 0 1
    outer loop
      vertex 4.8541 -3.52671 25
      vertex 1.88601 -3.23333 25
      vertex 4.62308 -3.82454 25
    endloop
  endfacet
  facet normal 0 0 1
    outer loop
      vertex 4.62308 -3.82454 25
      vertex 1.88601 -3.23333 25
      vertex 4.37381 -4.10728 25
    endloop
  endfacet
  facet normal 0 0 1
    outer loop
      vertex 1.88601 3.23333 25
      vertex 3.82454 4.62308 25
      vertex 3.52671 4.8541 25
    endloop
  endfacet
  facet normal 0 0 1
    outer loop
      vertex 1.88601 3.23333 25
      vertex 3.52671 4.8541 25
      vertex 3.21496 5.06597 25
    endloop
  endfacet
  facet normal 0 0 1
    outer loop
      vertex 1.88601 3.23333 25
      vertex 3.21496 5.06597 25
      vertex 2.89052 5.25784 25
    endloop
  endfacet
  facet normal 0 0 1
    outer loop
      vertex 1.85714 3.25 25
      vertex 2.89052 5.25784 25
      vertex 2.55468 5.42896 25
    endloop
  endfacet
  facet normal 0 0 1
    outer loop
      vertex 1.85714 3.25 25
      vertex 2.55468 5.42896 25
      vertex 2.20875 5.57866 25
    endloop
  endfacet
  facet normal 0 0 1
    outer loop
      vertex 5.25784 2.89052 25
      vertex 1.88601 3.23333 25
      vertex 3.74315 0.0166664 25
    endloop
  endfacet
  facet normal 0 0 1
    outer loop
      vertex 2.89052 5.25784 25
      vertex 1.85714 3.25 25
      vertex 1.88601 3.23333 25
    endloop
  endfacet
  facet normal 0 0 1
    outer loop
      vertex 1.8541 5.70634 25
      vertex 1.85714 3.25 25
      vertex 2.20875 5.57866 25
    endloop
  endfacet
  facet normal 0 0 1
    outer loop
      vertex 1.49214 5.8115 25
      vertex 1.85714 3.25 25
      vertex 1.8541 5.70634 25
    endloop
  endfacet
  facet normal 0 0 1
    outer loop
      vertex 1.12429 5.89372 25
      vertex 1.85714 3.25 25
      vertex 1.49214 5.8115 25
    endloop
  endfacet
  facet normal 0 0 1
    outer loop
      vertex 0.751999 5.95269 25
      vertex 1.85714 3.25 25
      vertex 1.12429 5.89372 25
    endloop
  endfacet
  facet normal 0 0 1
    outer loop
      vertex 0.376742 5.98816 25
      vertex 1.85714 3.25 25
      vertex 0.751999 5.95269 25
    endloop
  endfacet
  facet normal 0 0 1
    outer loop
      vertex 0 6 25
      vertex 1.85714 3.25 25
      vertex 0.376742 5.98816 25
    endloop
  endfacet
  facet normal 0 0 1
    outer loop
      vertex -1.85714 3.25 25
      vertex 0 6 25
      vertex -0.376742 5.98816 25
    endloop
  endfacet
  facet normal 0 0 1
    outer loop
      vertex -1.85714 3.25 25
      vertex -0.376742 5.98816 25
      vertex -0.751999 5.95269 25
    endloop
  endfacet
  facet normal 0 0 1
    outer loop
      vertex -1.85714 3.25 25
      vertex -0.751999 5.95269 25
      vertex -1.12429 5.89372 25
    endloop
  endfacet
  facet normal 0 0 1
    outer loop
      vertex -1.85714 3.25 25
      vertex -1.12429 5.89372 25
      vertex -1.49214 5.8115 25
    endloop
  endfacet
  facet normal 0 0 1
    outer loop
      vertex -1.85714 3.25 25
      vertex -1.49214 5.8115 25
      vertex -1.8541 5.70634 25
    endloop
  endfacet
  facet normal 0 0 1
    outer loop
      vertex 0 6 25
      vertex -1.85714 3.25 25
      vertex 1.85714 3.25 25
    endloop
  endfacet
  facet normal 0 0 1
    outer loop
      vertex -1.85714 3.25 25
      vertex -1.88601 3.23333 25
      vertex -1.85714 3.21667 25
    endloop
  endfacet
  facet normal -0 0 1
    outer loop
      vertex -2.20875 5.57866 25
      vertex -1.85714 3.25 25
      vertex -1.8541 5.70634 25
    endloop
  endfacet
  facet normal -0 0 1
    outer loop
      vertex -2.55468 5.42896 25
      vertex -1.85714 3.25 25
      vertex -2.20875 5.57866 25
    endloop
  endfacet
  facet normal -0 0 1
    outer loop
      vertex -2.89052 5.25784 25
      vertex -1.85714 3.25 25
      vertex -2.55468 5.42896 25
    endloop
  endfacet
  facet normal 0 0 1
    outer loop
      vertex -1.85714 3.25 25
      vertex -2.89052 5.25784 25
      vertex -1.88601 3.23333 25
    endloop
  endfacet
  facet normal -0 0 1
    outer loop
      vertex -3.21496 5.06597 25
      vertex -1.88601 3.23333 25
      vertex -2.89052 5.25784 25
    endloop
  endfacet
  facet normal -0 0 1
    outer loop
      vertex -3.52671 4.8541 25
      vertex -1.88601 3.23333 25
      vertex -3.21496 5.06597 25
    endloop
  endfacet
  facet normal -0 0 1
    outer loop
      vertex -3.82454 4.62308 25
      vertex -1.88601 3.23333 25
      vertex -3.52671 4.8541 25
    endloop
  endfacet
  facet normal -0 0 1
    outer loop
      vertex -4.37381 4.10728 25
      vertex -1.88601 3.23333 25
      vertex -4.10728 4.37381 25
    endloop
  endfacet
  facet normal -0 0 1
    outer loop
      vertex -4.10728 4.37381 25
      vertex -1.88601 3.23333 25
      vertex -3.82454 4.62308 25
    endloop
  endfacet
  facet normal 0 0 1
    outer loop
      vertex 4.37381 -4.10728 25
      vertex 1.88601 -3.23333 25
      vertex 4.10728 -4.37381 25
    endloop
  endfacet
  facet normal 0 0 1
    outer loop
      vertex 4.10728 -4.37381 25
      vertex 1.88601 -3.23333 25
      vertex 3.82454 -4.62308 25
    endloop
  endfacet
  facet normal 0 0 1
    outer loop
      vertex 3.82454 -4.62308 25
      vertex 1.88601 -3.23333 25
      vertex 3.52671 -4.8541 25
    endloop
  endfacet
  facet normal 0 0 1
    outer loop
      vertex 3.52671 -4.8541 25
      vertex 1.88601 -3.23333 25
      vertex 3.21496 -5.06597 25
    endloop
  endfacet
  facet normal 0 0 1
    outer loop
      vertex 3.21496 -5.06597 25
      vertex 1.88601 -3.23333 25
      vertex 2.89052 -5.25784 25
    endloop
  endfacet
  facet normal -0 0 1
    outer loop
      vertex 1.85714 -3.25 25
      vertex 2.89052 -5.25784 25
      vertex 1.88601 -3.23333 25
    endloop
  endfacet
  facet normal 0 0 1
    outer loop
      vertex 2.89052 -5.25784 25
      vertex 1.85714 -3.25 25
      vertex 2.55468 -5.42896 25
    endloop
  endfacet
  facet normal 0 0 1
    outer loop
      vertex 1.85714 -3.25 25
      vertex 1.88601 -3.23333 25
      vertex 1.85714 -3.21667 25
    endloop
  endfacet
  facet normal 0 0 1
    outer loop
      vertex 2.55468 -5.42896 25
      vertex 1.85714 -3.25 25
      vertex 2.20875 -5.57866 25
    endloop
  endfacet
  facet normal 0 0 1
    outer loop
      vertex 1.85714 -3.25 25
      vertex 1.8541 -5.70634 25
      vertex 2.20875 -5.57866 25
    endloop
  endfacet
  facet normal 0 0 1
    outer loop
      vertex 1.85714 -3.25 25
      vertex 1.49214 -5.8115 25
      vertex 1.8541 -5.70634 25
    endloop
  endfacet
  facet normal 0 0 1
    outer loop
      vertex 1.85714 -3.25 25
      vertex 1.12429 -5.89372 25
      vertex 1.49214 -5.8115 25
    endloop
  endfacet
  facet normal 0 0 1
    outer loop
      vertex 1.85714 -3.25 25
      vertex 0.751999 -5.95269 25
      vertex 1.12429 -5.89372 25
    endloop
  endfacet
  facet normal 0 0 1
    outer loop
      vertex 1.85714 -3.25 25
      vertex 0.376742 -5.98816 25
      vertex 0.751999 -5.95269 25
    endloop
  endfacet
  facet normal 0 0 1
    outer loop
      vertex 1.85714 -3.25 25
      vertex 0 -6 25
      vertex 0.376742 -5.98816 25
    endloop
  endfacet
  facet normal -0 0 1
    outer loop
      vertex -1.85714 -3.25 25
      vertex 0 -6 25
      vertex 1.85714 -3.25 25
    endloop
  endfacet
  facet normal 0 0 1
    outer loop
      vertex 0 -6 25
      vertex -1.85714 -3.25 25
      vertex -0.376742 -5.98816 25
    endloop
  endfacet
  facet normal 0 0 1
    outer loop
      vertex -0.376742 -5.98816 25
      vertex -1.85714 -3.25 25
      vertex -0.751999 -5.95269 25
    endloop
  endfacet
  facet normal 0 0 1
    outer loop
      vertex -0.751999 -5.95269 25
      vertex -1.85714 -3.25 25
      vertex -1.12429 -5.89372 25
    endloop
  endfacet
  facet normal 0 0 1
    outer loop
      vertex -1.12429 -5.89372 25
      vertex -1.85714 -3.25 25
      vertex -1.49214 -5.8115 25
    endloop
  endfacet
  facet normal 0 0 1
    outer loop
      vertex -1.49214 -5.8115 25
      vertex -1.85714 -3.25 25
      vertex -1.8541 -5.70634 25
    endloop
  endfacet
  facet normal 0 0 1
    outer loop
      vertex -2.89052 -5.25784 25
      vertex -1.85714 -3.25 25
      vertex -1.88601 -3.23333 25
    endloop
  endfacet
  facet normal 0 0 1
    outer loop
      vertex -1.85714 -3.25 25
      vertex -2.20875 -5.57866 25
      vertex -1.8541 -5.70634 25
    endloop
  endfacet
  facet normal 0 0 1
    outer loop
      vertex -1.85714 -3.25 25
      vertex -2.55468 -5.42896 25
      vertex -2.20875 -5.57866 25
    endloop
  endfacet
  facet normal 0 0 1
    outer loop
      vertex -1.85714 -3.25 25
      vertex -2.89052 -5.25784 25
      vertex -2.55468 -5.42896 25
    endloop
  endfacet
  facet normal 0 0 1
    outer loop
      vertex -1.88601 -3.23333 25
      vertex -3.21496 -5.06597 25
      vertex -2.89052 -5.25784 25
    endloop
  endfacet
  facet normal 0 0 1
    outer loop
      vertex -1.88601 -3.23333 25
      vertex -3.52671 -4.8541 25
      vertex -3.21496 -5.06597 25
    endloop
  endfacet
  facet normal -0 0 1
    outer loop
      vertex -5.25784 -2.89052 25
      vertex -1.88601 -3.23333 25
      vertex -3.74315 -0.0166664 25
    endloop
  endfacet
  facet normal 0 0 1
    outer loop
      vertex -1.88601 -3.23333 25
      vertex -3.82454 -4.62308 25
      vertex -3.52671 -4.8541 25
    endloop
  endfacet
  facet normal -0 0 1
    outer loop
      vertex -4.62308 3.82454 25
      vertex -1.88601 3.23333 25
      vertex -4.37381 4.10728 25
    endloop
  endfacet
  facet normal -0 0 1
    outer loop
      vertex -4.8541 3.52671 25
      vertex -1.88601 3.23333 25
      vertex -4.62308 3.82454 25
    endloop
  endfacet
  facet normal 0 0 1
    outer loop
      vertex -1.88601 -3.23333 25
      vertex -4.10728 -4.37381 25
      vertex -3.82454 -4.62308 25
    endloop
  endfacet
  facet normal 0 0 1
    outer loop
      vertex -5.06597 3.21496 25
      vertex -1.88601 3.23333 25
      vertex -4.8541 3.52671 25
    endloop
  endfacet
  facet normal 0 0 1
    outer loop
      vertex -1.88601 -3.23333 25
      vertex -4.37381 -4.10728 25
      vertex -4.10728 -4.37381 25
    endloop
  endfacet
  facet normal 0 0 1
    outer loop
      vertex -5.25784 2.89052 25
      vertex -1.88601 3.23333 25
      vertex -5.06597 3.21496 25
    endloop
  endfacet
  facet normal 0 0 1
    outer loop
      vertex -1.88601 -3.23333 25
      vertex -4.62308 -3.82454 25
      vertex -4.37381 -4.10728 25
    endloop
  endfacet
  facet normal 0 0 1
    outer loop
      vertex -1.88601 3.23333 25
      vertex -5.25784 2.89052 25
      vertex -3.74315 0.0166664 25
    endloop
  endfacet
  facet normal 0 0 1
    outer loop
      vertex -1.88601 -3.23333 25
      vertex -4.8541 -3.52671 25
      vertex -4.62308 -3.82454 25
    endloop
  endfacet
  facet normal -0 0 1
    outer loop
      vertex -5.42896 2.55468 25
      vertex -3.74315 0.0166664 25
      vertex -5.25784 2.89052 25
    endloop
  endfacet
  facet normal 0 0 1
    outer loop
      vertex -1.88601 -3.23333 25
      vertex -5.06597 -3.21496 25
      vertex -4.8541 -3.52671 25
    endloop
  endfacet
  facet normal -0 0 1
    outer loop
      vertex -5.57866 2.20875 25
      vertex -3.74315 0.0166664 25
      vertex -5.42896 2.55468 25
    endloop
  endfacet
  facet normal 0 0 1
    outer loop
      vertex -1.88601 -3.23333 25
      vertex -5.25784 -2.89052 25
      vertex -5.06597 -3.21496 25
    endloop
  endfacet
  facet normal -0 0 1
    outer loop
      vertex -5.70634 1.8541 25
      vertex -3.74315 0.0166664 25
      vertex -5.57866 2.20875 25
    endloop
  endfacet
  facet normal 0 0 1
    outer loop
      vertex -3.74315 -0.0166664 25
      vertex -5.42896 -2.55468 25
      vertex -5.25784 -2.89052 25
    endloop
  endfacet
  facet normal -0 0 1
    outer loop
      vertex -5.8115 1.49214 25
      vertex -3.74315 0.0166664 25
      vertex -5.70634 1.8541 25
    endloop
  endfacet
  facet normal 0 0 1
    outer loop
      vertex -3.74315 -0.0166664 25
      vertex -5.57866 -2.20875 25
      vertex -5.42896 -2.55468 25
    endloop
  endfacet
  facet normal -0 0 1
    outer loop
      vertex -5.89372 1.12429 25
      vertex -3.74315 0.0166664 25
      vertex -5.8115 1.49214 25
    endloop
  endfacet
  facet normal 0 0 1
    outer loop
      vertex -3.74315 -0.0166664 25
      vertex -5.70634 -1.8541 25
      vertex -5.57866 -2.20875 25
    endloop
  endfacet
  facet normal -0 0 1
    outer loop
      vertex -5.95269 0.751999 25
      vertex -3.74315 0.0166664 25
      vertex -5.89372 1.12429 25
    endloop
  endfacet
  facet normal 0 0 1
    outer loop
      vertex -3.74315 -0.0166664 25
      vertex -5.8115 -1.49214 25
      vertex -5.70634 -1.8541 25
    endloop
  endfacet
  facet normal -0 0 1
    outer loop
      vertex -5.98816 0.376742 25
      vertex -3.74315 0.0166664 25
      vertex -5.95269 0.751999 25
    endloop
  endfacet
  facet normal 0 0 1
    outer loop
      vertex -3.74315 -0.0166664 25
      vertex -5.89372 -1.12429 25
      vertex -5.8115 -1.49214 25
    endloop
  endfacet
  facet normal 0 0 1
    outer loop
      vertex -6 0 25
      vertex -3.74315 0.0166664 25
      vertex -5.98816 0.376742 25
    endloop
  endfacet
  facet normal 0 0 1
    outer loop
      vertex -3.74315 -0.0166664 25
      vertex -5.95269 -0.751999 25
      vertex -5.89372 -1.12429 25
    endloop
  endfacet
  facet normal 0 0 1
    outer loop
      vertex -3.74315 0.0166664 25
      vertex -6 0 25
      vertex -3.74315 -0.0166664 25
    endloop
  endfacet
  facet normal 0 0 1
    outer loop
      vertex -3.74315 -0.0166664 25
      vertex -5.98816 -0.376742 25
      vertex -5.95269 -0.751999 25
    endloop
  endfacet
  facet normal 0 0 1
    outer loop
      vertex -3.74315 -0.0166664 25
      vertex -6 0 25
      vertex -5.98816 -0.376742 25
    endloop
  endfacet
  facet normal 0 0 1
    outer loop
      vertex 1.88601 3.23333 25
      vertex 1.85714 3.25 25
      vertex 1.85714 3.21667 25
    endloop
  endfacet
  facet normal 0 0 1
    outer loop
      vertex -3.71429 0 25
      vertex -3.74315 0.0166664 25
      vertex -3.74315 -0.0166664 25
    endloop
  endfacet
  facet normal -0.891005 -0.453993 0
    outer loop
      vertex -5.25784 -2.89052 0
      vertex -5.42896 -2.55468 25
      vertex -5.42896 -2.55468 0
    endloop
  endfacet
  facet normal -0.891005 -0.453993 0
    outer loop
      vertex -5.42896 -2.55468 25
      vertex -5.25784 -2.89052 0
      vertex -5.25784 -2.89052 25
    endloop
  endfacet
  facet normal -0.612906 -0.790156 0
    outer loop
      vertex -3.82454 -4.62308 0
      vertex -3.52671 -4.8541 25
      vertex -3.82454 -4.62308 25
    endloop
  endfacet
  facet normal -0.612906 -0.790156 -0
    outer loop
      vertex -3.52671 -4.8541 25
      vertex -3.82454 -4.62308 0
      vertex -3.52671 -4.8541 0
    endloop
  endfacet
  facet normal -0.860746 0.509035 0
    outer loop
      vertex -5.25784 2.89052 0
      vertex -5.06597 3.21496 25
      vertex -5.06597 3.21496 0
    endloop
  endfacet
  facet normal -0.860746 0.509035 0
    outer loop
      vertex -5.06597 3.21496 25
      vertex -5.25784 2.89052 0
      vertex -5.25784 2.89052 25
    endloop
  endfacet
endsolid OpenSCAD_Model
